<svg xmlns="http://www.w3.org/2000/svg" style="cursor: move;" width="1760" height="851"><g transform="translate(-1077.3012088270875,-613.1752511900722) scale(2.29739670999407)"><path class="link" style="stroke-width: 0.8px; stroke-opacity: 0.7; stroke: rgb(80, 80, 80);" marker-end="" d="M709,355.5, 900,435.5"></path><path class="link" style="stroke-width: 0.8px; stroke-opacity: 0.7; stroke: rgb(80, 80, 80);" marker-end="" d="M709,395.5, 900,435.5"></path><path class="link" style="stroke-width: 0.8px; stroke-opacity: 0.7; stroke: rgb(80, 80, 80);" marker-end="" d="M709,435.5, 900,435.5"></path><path class="link" style="stroke-width: 0.8px; stroke-opacity: 0.7; stroke: rgb(80, 80, 80);" marker-end="" d="M709,475.5, 900,435.5"></path><path class="link" style="stroke-width: 0.8px; stroke-opacity: 0.7; stroke: rgb(80, 80, 80);" marker-end="" d="M900,395.5, 1091,415.5"></path><path class="link" style="stroke-width: 0.8px; stroke-opacity: 0.7; stroke: rgb(80, 80, 80);" marker-end="" d="M900,435.5, 1091,415.5"></path><path class="link" style="stroke-width: 0.8px; stroke-opacity: 0.7; stroke: rgb(80, 80, 80);" marker-end="" d="M709,355.5, 900,395.5"></path><path class="link" style="stroke-width: 0.8px; stroke-opacity: 0.7; stroke: rgb(80, 80, 80);" marker-end="" d="M709,395.5, 900,395.5"></path><path class="link" style="stroke-width: 0.8px; stroke-opacity: 0.7; stroke: rgb(80, 80, 80);" marker-end="" d="M709,435.5, 900,395.5"></path><path class="link" style="stroke-width: 0.8px; stroke-opacity: 0.7; stroke: rgb(80, 80, 80);" marker-end="" d="M709,475.5, 900,395.5"></path><circle r="10" class="node" id="0_0" style="fill: rgb(255, 255, 255); stroke: rgb(51, 51, 51);" cx="709" cy="355.5"></circle><circle r="10" class="node" id="0_1" style="fill: rgb(255, 255, 255); stroke: rgb(51, 51, 51);" cx="709" cy="395.5"></circle><circle r="10" class="node" id="0_2" style="fill: rgb(255, 255, 255); stroke: rgb(51, 51, 51);" cx="709" cy="435.5"></circle><circle r="10" class="node" id="0_3" style="fill: rgb(255, 255, 255); stroke: rgb(51, 51, 51);" cx="709" cy="475.5"></circle><circle r="10" class="node" id="1_0" style="fill: rgb(255, 255, 255); stroke: rgb(51, 51, 51);" cx="900" cy="395.5"></circle><circle r="10" class="node" id="1_1" style="fill: rgb(255, 255, 255); stroke: rgb(51, 51, 51);" cx="900" cy="435.5"></circle><text class="text" dy=".35em" style="font-size: 12px;" x="674" y="515.5">Input Layer ∈ ℝ⁴</text><text class="text" dy=".35em" style="font-size: 12px;" x="865" y="515.5">Hidden Layer ∈ ℝ²</text><circle r="10" class="node" id="2_0" style="fill: rgb(255, 255, 255); stroke: rgb(51, 51, 51);" cx="1091" cy="415.5"></circle><text class="text" dy=".35em" style="font-size: 12px;" x="1056" y="515.5">Output Layer ∈ ℝ¹</text></g><defs><marker id="arrow" viewBox="0 -5 10 10" markerWidth="7" markerHeight="7" orient="auto" refX="40"><path d="M0,-5L10,0L0,5" style="stroke: rgb(80, 80, 80); fill: none;"></path></marker></defs></svg>