<?xml version="1.0" encoding="utf-8" standalone="no"?>
<!DOCTYPE svg PUBLIC "-//W3C//DTD SVG 1.1//EN"
  "http://www.w3.org/Graphics/SVG/1.1/DTD/svg11.dtd">
<!-- Created with matplotlib (https://matplotlib.org/) -->
<svg height="648pt" version="1.1" viewBox="0 0 720 648" width="720pt" xmlns="http://www.w3.org/2000/svg" xmlns:xlink="http://www.w3.org/1999/xlink">
 <defs>
  <style type="text/css">
*{stroke-linecap:butt;stroke-linejoin:round;}
  </style>
 </defs>
 <g id="figure_1">
  <g id="patch_1">
   <path d="M 0 648 
L 720 648 
L 720 0 
L 0 0 
z
" style="fill:#ffffff;"/>
  </g>
  <g id="axes_1">
   <g id="patch_2">
    <path d="M 167.175 480.825 
L 600.795 480.825 
L 600.795 14.8 
L 167.175 14.8 
z
" style="fill:#ffffff;"/>
   </g>
   <g id="QuadMesh_1">
    <path clip-path="url(#pd9bbb4adef)" d="M 167.175 14.8 
L 210.537 14.8 
L 210.537 61.4025 
L 167.175 61.4025 
L 167.175 14.8 
" style="fill:#0b559f;"/>
    <path clip-path="url(#pd9bbb4adef)" d="M 210.537 14.8 
L 253.899 14.8 
L 253.899 61.4025 
L 210.537 61.4025 
L 210.537 14.8 
" style="fill:#dbe9f6;"/>
    <path clip-path="url(#pd9bbb4adef)" d="M 253.899 14.8 
L 297.261 14.8 
L 297.261 61.4025 
L 253.899 61.4025 
L 253.899 14.8 
" style="fill:#dbe9f6;"/>
    <path clip-path="url(#pd9bbb4adef)" d="M 297.261 14.8 
L 340.623 14.8 
L 340.623 61.4025 
L 297.261 61.4025 
L 297.261 14.8 
" style="fill:#dbe9f6;"/>
    <path clip-path="url(#pd9bbb4adef)" d="M 340.623 14.8 
L 383.985 14.8 
L 383.985 61.4025 
L 340.623 61.4025 
L 340.623 14.8 
" style="fill:#dbe9f6;"/>
    <path clip-path="url(#pd9bbb4adef)" d="M 383.985 14.8 
L 427.347 14.8 
L 427.347 61.4025 
L 383.985 61.4025 
L 383.985 14.8 
" style="fill:#dbe9f6;"/>
    <path clip-path="url(#pd9bbb4adef)" d="M 427.347 14.8 
L 470.709 14.8 
L 470.709 61.4025 
L 427.347 61.4025 
L 427.347 14.8 
" style="fill:#dbe9f6;"/>
    <path clip-path="url(#pd9bbb4adef)" d="M 470.709 14.8 
L 514.071 14.8 
L 514.071 61.4025 
L 470.709 61.4025 
L 470.709 14.8 
" style="fill:#dbe9f6;"/>
    <path clip-path="url(#pd9bbb4adef)" d="M 514.071 14.8 
L 557.433 14.8 
L 557.433 61.4025 
L 514.071 61.4025 
L 514.071 14.8 
" style="fill:#dbe9f6;"/>
    <path clip-path="url(#pd9bbb4adef)" d="M 557.433 14.8 
L 600.795 14.8 
L 600.795 61.4025 
L 557.433 61.4025 
L 557.433 14.8 
" style="fill:#dbe9f6;"/>
    <path clip-path="url(#pd9bbb4adef)" d="M 167.175 61.4025 
L 210.537 61.4025 
L 210.537 108.005 
L 167.175 108.005 
L 167.175 61.4025 
" style="fill:#dbe9f6;"/>
    <path clip-path="url(#pd9bbb4adef)" d="M 210.537 61.4025 
L 253.899 61.4025 
L 253.899 108.005 
L 210.537 108.005 
L 210.537 61.4025 
" style="fill:#0b559f;"/>
    <path clip-path="url(#pd9bbb4adef)" d="M 253.899 61.4025 
L 297.261 61.4025 
L 297.261 108.005 
L 253.899 108.005 
L 253.899 61.4025 
" style="fill:#dbe9f6;"/>
    <path clip-path="url(#pd9bbb4adef)" d="M 297.261 61.4025 
L 340.623 61.4025 
L 340.623 108.005 
L 297.261 108.005 
L 297.261 61.4025 
" style="fill:#dbe9f6;"/>
    <path clip-path="url(#pd9bbb4adef)" d="M 340.623 61.4025 
L 383.985 61.4025 
L 383.985 108.005 
L 340.623 108.005 
L 340.623 61.4025 
" style="fill:#dbe9f6;"/>
    <path clip-path="url(#pd9bbb4adef)" d="M 383.985 61.4025 
L 427.347 61.4025 
L 427.347 108.005 
L 383.985 108.005 
L 383.985 61.4025 
" style="fill:#dbe9f6;"/>
    <path clip-path="url(#pd9bbb4adef)" d="M 427.347 61.4025 
L 470.709 61.4025 
L 470.709 108.005 
L 427.347 108.005 
L 427.347 61.4025 
" style="fill:#dbe9f6;"/>
    <path clip-path="url(#pd9bbb4adef)" d="M 470.709 61.4025 
L 514.071 61.4025 
L 514.071 108.005 
L 470.709 108.005 
L 470.709 61.4025 
" style="fill:#dbe9f6;"/>
    <path clip-path="url(#pd9bbb4adef)" d="M 514.071 61.4025 
L 557.433 61.4025 
L 557.433 108.005 
L 514.071 108.005 
L 514.071 61.4025 
" style="fill:#dbe9f6;"/>
    <path clip-path="url(#pd9bbb4adef)" d="M 557.433 61.4025 
L 600.795 61.4025 
L 600.795 108.005 
L 557.433 108.005 
L 557.433 61.4025 
" style="fill:#dbe9f6;"/>
    <path clip-path="url(#pd9bbb4adef)" d="M 167.175 108.005 
L 210.537 108.005 
L 210.537 154.6075 
L 167.175 154.6075 
L 167.175 108.005 
" style="fill:#dbe9f6;"/>
    <path clip-path="url(#pd9bbb4adef)" d="M 210.537 108.005 
L 253.899 108.005 
L 253.899 154.6075 
L 210.537 154.6075 
L 210.537 108.005 
" style="fill:#dbe9f6;"/>
    <path clip-path="url(#pd9bbb4adef)" d="M 253.899 108.005 
L 297.261 108.005 
L 297.261 154.6075 
L 253.899 154.6075 
L 253.899 108.005 
" style="fill:#2b7bba;"/>
    <path clip-path="url(#pd9bbb4adef)" d="M 297.261 108.005 
L 340.623 108.005 
L 340.623 154.6075 
L 297.261 154.6075 
L 297.261 108.005 
" style="fill:#dbe9f6;"/>
    <path clip-path="url(#pd9bbb4adef)" d="M 340.623 108.005 
L 383.985 108.005 
L 383.985 154.6075 
L 340.623 154.6075 
L 340.623 108.005 
" style="fill:#dbe9f6;"/>
    <path clip-path="url(#pd9bbb4adef)" d="M 383.985 108.005 
L 427.347 108.005 
L 427.347 154.6075 
L 383.985 154.6075 
L 383.985 108.005 
" style="fill:#dbe9f6;"/>
    <path clip-path="url(#pd9bbb4adef)" d="M 427.347 108.005 
L 470.709 108.005 
L 470.709 154.6075 
L 427.347 154.6075 
L 427.347 108.005 
" style="fill:#dbe9f6;"/>
    <path clip-path="url(#pd9bbb4adef)" d="M 470.709 108.005 
L 514.071 108.005 
L 514.071 154.6075 
L 470.709 154.6075 
L 470.709 108.005 
" style="fill:#dbe9f6;"/>
    <path clip-path="url(#pd9bbb4adef)" d="M 514.071 108.005 
L 557.433 108.005 
L 557.433 154.6075 
L 514.071 154.6075 
L 514.071 108.005 
" style="fill:#dbe9f6;"/>
    <path clip-path="url(#pd9bbb4adef)" d="M 557.433 108.005 
L 600.795 108.005 
L 600.795 154.6075 
L 557.433 154.6075 
L 557.433 108.005 
" style="fill:#dbe9f6;"/>
    <path clip-path="url(#pd9bbb4adef)" d="M 167.175 154.6075 
L 210.537 154.6075 
L 210.537 201.21 
L 167.175 201.21 
L 167.175 154.6075 
" style="fill:#dbe9f6;"/>
    <path clip-path="url(#pd9bbb4adef)" d="M 210.537 154.6075 
L 253.899 154.6075 
L 253.899 201.21 
L 210.537 201.21 
L 210.537 154.6075 
" style="fill:#dbe9f6;"/>
    <path clip-path="url(#pd9bbb4adef)" d="M 253.899 154.6075 
L 297.261 154.6075 
L 297.261 201.21 
L 253.899 201.21 
L 253.899 154.6075 
" style="fill:#dbe9f6;"/>
    <path clip-path="url(#pd9bbb4adef)" d="M 297.261 154.6075 
L 340.623 154.6075 
L 340.623 201.21 
L 297.261 201.21 
L 297.261 154.6075 
" style="fill:#2b7bba;"/>
    <path clip-path="url(#pd9bbb4adef)" d="M 340.623 154.6075 
L 383.985 154.6075 
L 383.985 201.21 
L 340.623 201.21 
L 340.623 154.6075 
" style="fill:#dbe9f6;"/>
    <path clip-path="url(#pd9bbb4adef)" d="M 383.985 154.6075 
L 427.347 154.6075 
L 427.347 201.21 
L 383.985 201.21 
L 383.985 154.6075 
" style="fill:#dbe9f6;"/>
    <path clip-path="url(#pd9bbb4adef)" d="M 427.347 154.6075 
L 470.709 154.6075 
L 470.709 201.21 
L 427.347 201.21 
L 427.347 154.6075 
" style="fill:#dbe9f6;"/>
    <path clip-path="url(#pd9bbb4adef)" d="M 470.709 154.6075 
L 514.071 154.6075 
L 514.071 201.21 
L 470.709 201.21 
L 470.709 154.6075 
" style="fill:#dbe9f6;"/>
    <path clip-path="url(#pd9bbb4adef)" d="M 514.071 154.6075 
L 557.433 154.6075 
L 557.433 201.21 
L 514.071 201.21 
L 514.071 154.6075 
" style="fill:#dbe9f6;"/>
    <path clip-path="url(#pd9bbb4adef)" d="M 557.433 154.6075 
L 600.795 154.6075 
L 600.795 201.21 
L 557.433 201.21 
L 557.433 154.6075 
" style="fill:#dbe9f6;"/>
    <path clip-path="url(#pd9bbb4adef)" d="M 167.175 201.21 
L 210.537 201.21 
L 210.537 247.8125 
L 167.175 247.8125 
L 167.175 201.21 
" style="fill:#dbe9f6;"/>
    <path clip-path="url(#pd9bbb4adef)" d="M 210.537 201.21 
L 253.899 201.21 
L 253.899 247.8125 
L 210.537 247.8125 
L 210.537 201.21 
" style="fill:#dbe9f6;"/>
    <path clip-path="url(#pd9bbb4adef)" d="M 253.899 201.21 
L 297.261 201.21 
L 297.261 247.8125 
L 253.899 247.8125 
L 253.899 201.21 
" style="fill:#dbe9f6;"/>
    <path clip-path="url(#pd9bbb4adef)" d="M 297.261 201.21 
L 340.623 201.21 
L 340.623 247.8125 
L 297.261 247.8125 
L 297.261 201.21 
" style="fill:#dbe9f6;"/>
    <path clip-path="url(#pd9bbb4adef)" d="M 340.623 201.21 
L 383.985 201.21 
L 383.985 247.8125 
L 340.623 247.8125 
L 340.623 201.21 
" style="fill:#539ecd;"/>
    <path clip-path="url(#pd9bbb4adef)" d="M 383.985 201.21 
L 427.347 201.21 
L 427.347 247.8125 
L 383.985 247.8125 
L 383.985 201.21 
" style="fill:#dbe9f6;"/>
    <path clip-path="url(#pd9bbb4adef)" d="M 427.347 201.21 
L 470.709 201.21 
L 470.709 247.8125 
L 427.347 247.8125 
L 427.347 201.21 
" style="fill:#dbe9f6;"/>
    <path clip-path="url(#pd9bbb4adef)" d="M 470.709 201.21 
L 514.071 201.21 
L 514.071 247.8125 
L 470.709 247.8125 
L 470.709 201.21 
" style="fill:#dbe9f6;"/>
    <path clip-path="url(#pd9bbb4adef)" d="M 514.071 201.21 
L 557.433 201.21 
L 557.433 247.8125 
L 514.071 247.8125 
L 514.071 201.21 
" style="fill:#dbe9f6;"/>
    <path clip-path="url(#pd9bbb4adef)" d="M 557.433 201.21 
L 600.795 201.21 
L 600.795 247.8125 
L 557.433 247.8125 
L 557.433 201.21 
" style="fill:#dbe9f6;"/>
    <path clip-path="url(#pd9bbb4adef)" d="M 167.175 247.8125 
L 210.537 247.8125 
L 210.537 294.415 
L 167.175 294.415 
L 167.175 247.8125 
" style="fill:#dbe9f6;"/>
    <path clip-path="url(#pd9bbb4adef)" d="M 210.537 247.8125 
L 253.899 247.8125 
L 253.899 294.415 
L 210.537 294.415 
L 210.537 247.8125 
" style="fill:#dbe9f6;"/>
    <path clip-path="url(#pd9bbb4adef)" d="M 253.899 247.8125 
L 297.261 247.8125 
L 297.261 294.415 
L 253.899 294.415 
L 253.899 247.8125 
" style="fill:#dbe9f6;"/>
    <path clip-path="url(#pd9bbb4adef)" d="M 297.261 247.8125 
L 340.623 247.8125 
L 340.623 294.415 
L 297.261 294.415 
L 297.261 247.8125 
" style="fill:#dbe9f6;"/>
    <path clip-path="url(#pd9bbb4adef)" d="M 340.623 247.8125 
L 383.985 247.8125 
L 383.985 294.415 
L 340.623 294.415 
L 340.623 247.8125 
" style="fill:#dbe9f6;"/>
    <path clip-path="url(#pd9bbb4adef)" d="M 383.985 247.8125 
L 427.347 247.8125 
L 427.347 294.415 
L 383.985 294.415 
L 383.985 247.8125 
" style="fill:#89bedc;"/>
    <path clip-path="url(#pd9bbb4adef)" d="M 427.347 247.8125 
L 470.709 247.8125 
L 470.709 294.415 
L 427.347 294.415 
L 427.347 247.8125 
" style="fill:#dbe9f6;"/>
    <path clip-path="url(#pd9bbb4adef)" d="M 470.709 247.8125 
L 514.071 247.8125 
L 514.071 294.415 
L 470.709 294.415 
L 470.709 247.8125 
" style="fill:#dbe9f6;"/>
    <path clip-path="url(#pd9bbb4adef)" d="M 514.071 247.8125 
L 557.433 247.8125 
L 557.433 294.415 
L 514.071 294.415 
L 514.071 247.8125 
" style="fill:#dbe9f6;"/>
    <path clip-path="url(#pd9bbb4adef)" d="M 557.433 247.8125 
L 600.795 247.8125 
L 600.795 294.415 
L 557.433 294.415 
L 557.433 247.8125 
" style="fill:#dbe9f6;"/>
    <path clip-path="url(#pd9bbb4adef)" d="M 167.175 294.415 
L 210.537 294.415 
L 210.537 341.0175 
L 167.175 341.0175 
L 167.175 294.415 
" style="fill:#dbe9f6;"/>
    <path clip-path="url(#pd9bbb4adef)" d="M 210.537 294.415 
L 253.899 294.415 
L 253.899 341.0175 
L 210.537 341.0175 
L 210.537 294.415 
" style="fill:#dbe9f6;"/>
    <path clip-path="url(#pd9bbb4adef)" d="M 253.899 294.415 
L 297.261 294.415 
L 297.261 341.0175 
L 253.899 341.0175 
L 253.899 294.415 
" style="fill:#dbe9f6;"/>
    <path clip-path="url(#pd9bbb4adef)" d="M 297.261 294.415 
L 340.623 294.415 
L 340.623 341.0175 
L 297.261 341.0175 
L 297.261 294.415 
" style="fill:#dbe9f6;"/>
    <path clip-path="url(#pd9bbb4adef)" d="M 340.623 294.415 
L 383.985 294.415 
L 383.985 341.0175 
L 340.623 341.0175 
L 340.623 294.415 
" style="fill:#dbe9f6;"/>
    <path clip-path="url(#pd9bbb4adef)" d="M 383.985 294.415 
L 427.347 294.415 
L 427.347 341.0175 
L 383.985 341.0175 
L 383.985 294.415 
" style="fill:#dbe9f6;"/>
    <path clip-path="url(#pd9bbb4adef)" d="M 427.347 294.415 
L 470.709 294.415 
L 470.709 341.0175 
L 427.347 341.0175 
L 427.347 294.415 
" style="fill:#0b559f;"/>
    <path clip-path="url(#pd9bbb4adef)" d="M 470.709 294.415 
L 514.071 294.415 
L 514.071 341.0175 
L 470.709 341.0175 
L 470.709 294.415 
" style="fill:#dbe9f6;"/>
    <path clip-path="url(#pd9bbb4adef)" d="M 514.071 294.415 
L 557.433 294.415 
L 557.433 341.0175 
L 514.071 341.0175 
L 514.071 294.415 
" style="fill:#dbe9f6;"/>
    <path clip-path="url(#pd9bbb4adef)" d="M 557.433 294.415 
L 600.795 294.415 
L 600.795 341.0175 
L 557.433 341.0175 
L 557.433 294.415 
" style="fill:#dbe9f6;"/>
    <path clip-path="url(#pd9bbb4adef)" d="M 167.175 341.0175 
L 210.537 341.0175 
L 210.537 387.62 
L 167.175 387.62 
L 167.175 341.0175 
" style="fill:#dbe9f6;"/>
    <path clip-path="url(#pd9bbb4adef)" d="M 210.537 341.0175 
L 253.899 341.0175 
L 253.899 387.62 
L 210.537 387.62 
L 210.537 341.0175 
" style="fill:#dbe9f6;"/>
    <path clip-path="url(#pd9bbb4adef)" d="M 253.899 341.0175 
L 297.261 341.0175 
L 297.261 387.62 
L 253.899 387.62 
L 253.899 341.0175 
" style="fill:#dbe9f6;"/>
    <path clip-path="url(#pd9bbb4adef)" d="M 297.261 341.0175 
L 340.623 341.0175 
L 340.623 387.62 
L 297.261 387.62 
L 297.261 341.0175 
" style="fill:#dbe9f6;"/>
    <path clip-path="url(#pd9bbb4adef)" d="M 340.623 341.0175 
L 383.985 341.0175 
L 383.985 387.62 
L 340.623 387.62 
L 340.623 341.0175 
" style="fill:#dbe9f6;"/>
    <path clip-path="url(#pd9bbb4adef)" d="M 383.985 341.0175 
L 427.347 341.0175 
L 427.347 387.62 
L 383.985 387.62 
L 383.985 341.0175 
" style="fill:#dbe9f6;"/>
    <path clip-path="url(#pd9bbb4adef)" d="M 427.347 341.0175 
L 470.709 341.0175 
L 470.709 387.62 
L 427.347 387.62 
L 427.347 341.0175 
" style="fill:#dbe9f6;"/>
    <path clip-path="url(#pd9bbb4adef)" d="M 470.709 341.0175 
L 514.071 341.0175 
L 514.071 387.62 
L 470.709 387.62 
L 470.709 341.0175 
" style="fill:#89bedc;"/>
    <path clip-path="url(#pd9bbb4adef)" d="M 514.071 341.0175 
L 557.433 341.0175 
L 557.433 387.62 
L 514.071 387.62 
L 514.071 341.0175 
" style="fill:#dbe9f6;"/>
    <path clip-path="url(#pd9bbb4adef)" d="M 557.433 341.0175 
L 600.795 341.0175 
L 600.795 387.62 
L 557.433 387.62 
L 557.433 341.0175 
" style="fill:#dbe9f6;"/>
    <path clip-path="url(#pd9bbb4adef)" d="M 167.175 387.62 
L 210.537 387.62 
L 210.537 434.2225 
L 167.175 434.2225 
L 167.175 387.62 
" style="fill:#dbe9f6;"/>
    <path clip-path="url(#pd9bbb4adef)" d="M 210.537 387.62 
L 253.899 387.62 
L 253.899 434.2225 
L 210.537 434.2225 
L 210.537 387.62 
" style="fill:#dbe9f6;"/>
    <path clip-path="url(#pd9bbb4adef)" d="M 253.899 387.62 
L 297.261 387.62 
L 297.261 434.2225 
L 253.899 434.2225 
L 253.899 387.62 
" style="fill:#dbe9f6;"/>
    <path clip-path="url(#pd9bbb4adef)" d="M 297.261 387.62 
L 340.623 387.62 
L 340.623 434.2225 
L 297.261 434.2225 
L 297.261 387.62 
" style="fill:#dbe9f6;"/>
    <path clip-path="url(#pd9bbb4adef)" d="M 340.623 387.62 
L 383.985 387.62 
L 383.985 434.2225 
L 340.623 434.2225 
L 340.623 387.62 
" style="fill:#dbe9f6;"/>
    <path clip-path="url(#pd9bbb4adef)" d="M 383.985 387.62 
L 427.347 387.62 
L 427.347 434.2225 
L 383.985 434.2225 
L 383.985 387.62 
" style="fill:#dbe9f6;"/>
    <path clip-path="url(#pd9bbb4adef)" d="M 427.347 387.62 
L 470.709 387.62 
L 470.709 434.2225 
L 427.347 434.2225 
L 427.347 387.62 
" style="fill:#dbe9f6;"/>
    <path clip-path="url(#pd9bbb4adef)" d="M 470.709 387.62 
L 514.071 387.62 
L 514.071 434.2225 
L 470.709 434.2225 
L 470.709 387.62 
" style="fill:#dbe9f6;"/>
    <path clip-path="url(#pd9bbb4adef)" d="M 514.071 387.62 
L 557.433 387.62 
L 557.433 434.2225 
L 514.071 434.2225 
L 514.071 387.62 
" style="fill:#539ecd;"/>
    <path clip-path="url(#pd9bbb4adef)" d="M 557.433 387.62 
L 600.795 387.62 
L 600.795 434.2225 
L 557.433 434.2225 
L 557.433 387.62 
" style="fill:#dbe9f6;"/>
    <path clip-path="url(#pd9bbb4adef)" d="M 167.175 434.2225 
L 210.537 434.2225 
L 210.537 480.825 
L 167.175 480.825 
L 167.175 434.2225 
" style="fill:#dbe9f6;"/>
    <path clip-path="url(#pd9bbb4adef)" d="M 210.537 434.2225 
L 253.899 434.2225 
L 253.899 480.825 
L 210.537 480.825 
L 210.537 434.2225 
" style="fill:#dbe9f6;"/>
    <path clip-path="url(#pd9bbb4adef)" d="M 253.899 434.2225 
L 297.261 434.2225 
L 297.261 480.825 
L 253.899 480.825 
L 253.899 434.2225 
" style="fill:#dbe9f6;"/>
    <path clip-path="url(#pd9bbb4adef)" d="M 297.261 434.2225 
L 340.623 434.2225 
L 340.623 480.825 
L 297.261 480.825 
L 297.261 434.2225 
" style="fill:#dbe9f6;"/>
    <path clip-path="url(#pd9bbb4adef)" d="M 340.623 434.2225 
L 383.985 434.2225 
L 383.985 480.825 
L 340.623 480.825 
L 340.623 434.2225 
" style="fill:#dbe9f6;"/>
    <path clip-path="url(#pd9bbb4adef)" d="M 383.985 434.2225 
L 427.347 434.2225 
L 427.347 480.825 
L 383.985 480.825 
L 383.985 434.2225 
" style="fill:#dbe9f6;"/>
    <path clip-path="url(#pd9bbb4adef)" d="M 427.347 434.2225 
L 470.709 434.2225 
L 470.709 480.825 
L 427.347 480.825 
L 427.347 434.2225 
" style="fill:#dbe9f6;"/>
    <path clip-path="url(#pd9bbb4adef)" d="M 470.709 434.2225 
L 514.071 434.2225 
L 514.071 480.825 
L 470.709 480.825 
L 470.709 434.2225 
" style="fill:#dbe9f6;"/>
    <path clip-path="url(#pd9bbb4adef)" d="M 514.071 434.2225 
L 557.433 434.2225 
L 557.433 480.825 
L 514.071 480.825 
L 514.071 434.2225 
" style="fill:#dbe9f6;"/>
    <path clip-path="url(#pd9bbb4adef)" d="M 557.433 434.2225 
L 600.795 434.2225 
L 600.795 480.825 
L 557.433 480.825 
L 557.433 434.2225 
" style="fill:#539ecd;"/>
   </g>
   <g id="matplotlib.axis_1">
    <g id="xtick_1">
     <g id="line2d_1">
      <defs>
       <path d="M 0 0 
L 0 3.5 
" id="mb9306790de" style="stroke:#000000;stroke-width:0.8;"/>
      </defs>
      <g>
       <use style="stroke:#000000;stroke-width:0.8;" x="188.856" xlink:href="#mb9306790de" y="480.825"/>
      </g>
     </g>
     <g id="text_1">
      <!-- Computerspiel nach Plattform -->
      <defs>
       <path d="M 64.40625 67.28125 
L 64.40625 56.890625 
Q 59.421875 61.53125 53.78125 63.8125 
Q 48.140625 66.109375 41.796875 66.109375 
Q 29.296875 66.109375 22.65625 58.46875 
Q 16.015625 50.828125 16.015625 36.375 
Q 16.015625 21.96875 22.65625 14.328125 
Q 29.296875 6.6875 41.796875 6.6875 
Q 48.140625 6.6875 53.78125 8.984375 
Q 59.421875 11.28125 64.40625 15.921875 
L 64.40625 5.609375 
Q 59.234375 2.09375 53.4375 0.328125 
Q 47.65625 -1.421875 41.21875 -1.421875 
Q 24.65625 -1.421875 15.125 8.703125 
Q 5.609375 18.84375 5.609375 36.375 
Q 5.609375 53.953125 15.125 64.078125 
Q 24.65625 74.21875 41.21875 74.21875 
Q 47.75 74.21875 53.53125 72.484375 
Q 59.328125 70.75 64.40625 67.28125 
z
" id="DejaVuSans-67"/>
       <path d="M 30.609375 48.390625 
Q 23.390625 48.390625 19.1875 42.75 
Q 14.984375 37.109375 14.984375 27.296875 
Q 14.984375 17.484375 19.15625 11.84375 
Q 23.34375 6.203125 30.609375 6.203125 
Q 37.796875 6.203125 41.984375 11.859375 
Q 46.1875 17.53125 46.1875 27.296875 
Q 46.1875 37.015625 41.984375 42.703125 
Q 37.796875 48.390625 30.609375 48.390625 
z
M 30.609375 56 
Q 42.328125 56 49.015625 48.375 
Q 55.71875 40.765625 55.71875 27.296875 
Q 55.71875 13.875 49.015625 6.21875 
Q 42.328125 -1.421875 30.609375 -1.421875 
Q 18.84375 -1.421875 12.171875 6.21875 
Q 5.515625 13.875 5.515625 27.296875 
Q 5.515625 40.765625 12.171875 48.375 
Q 18.84375 56 30.609375 56 
z
" id="DejaVuSans-111"/>
       <path d="M 52 44.1875 
Q 55.375 50.25 60.0625 53.125 
Q 64.75 56 71.09375 56 
Q 79.640625 56 84.28125 50.015625 
Q 88.921875 44.046875 88.921875 33.015625 
L 88.921875 0 
L 79.890625 0 
L 79.890625 32.71875 
Q 79.890625 40.578125 77.09375 44.375 
Q 74.3125 48.1875 68.609375 48.1875 
Q 61.625 48.1875 57.5625 43.546875 
Q 53.515625 38.921875 53.515625 30.90625 
L 53.515625 0 
L 44.484375 0 
L 44.484375 32.71875 
Q 44.484375 40.625 41.703125 44.40625 
Q 38.921875 48.1875 33.109375 48.1875 
Q 26.21875 48.1875 22.15625 43.53125 
Q 18.109375 38.875 18.109375 30.90625 
L 18.109375 0 
L 9.078125 0 
L 9.078125 54.6875 
L 18.109375 54.6875 
L 18.109375 46.1875 
Q 21.1875 51.21875 25.484375 53.609375 
Q 29.78125 56 35.6875 56 
Q 41.65625 56 45.828125 52.96875 
Q 50 49.953125 52 44.1875 
z
" id="DejaVuSans-109"/>
       <path d="M 18.109375 8.203125 
L 18.109375 -20.796875 
L 9.078125 -20.796875 
L 9.078125 54.6875 
L 18.109375 54.6875 
L 18.109375 46.390625 
Q 20.953125 51.265625 25.265625 53.625 
Q 29.59375 56 35.59375 56 
Q 45.5625 56 51.78125 48.09375 
Q 58.015625 40.1875 58.015625 27.296875 
Q 58.015625 14.40625 51.78125 6.484375 
Q 45.5625 -1.421875 35.59375 -1.421875 
Q 29.59375 -1.421875 25.265625 0.953125 
Q 20.953125 3.328125 18.109375 8.203125 
z
M 48.6875 27.296875 
Q 48.6875 37.203125 44.609375 42.84375 
Q 40.53125 48.484375 33.40625 48.484375 
Q 26.265625 48.484375 22.1875 42.84375 
Q 18.109375 37.203125 18.109375 27.296875 
Q 18.109375 17.390625 22.1875 11.75 
Q 26.265625 6.109375 33.40625 6.109375 
Q 40.53125 6.109375 44.609375 11.75 
Q 48.6875 17.390625 48.6875 27.296875 
z
" id="DejaVuSans-112"/>
       <path d="M 8.5 21.578125 
L 8.5 54.6875 
L 17.484375 54.6875 
L 17.484375 21.921875 
Q 17.484375 14.15625 20.5 10.265625 
Q 23.53125 6.390625 29.59375 6.390625 
Q 36.859375 6.390625 41.078125 11.03125 
Q 45.3125 15.671875 45.3125 23.6875 
L 45.3125 54.6875 
L 54.296875 54.6875 
L 54.296875 0 
L 45.3125 0 
L 45.3125 8.40625 
Q 42.046875 3.421875 37.71875 1 
Q 33.40625 -1.421875 27.6875 -1.421875 
Q 18.265625 -1.421875 13.375 4.4375 
Q 8.5 10.296875 8.5 21.578125 
z
M 31.109375 56 
z
" id="DejaVuSans-117"/>
       <path d="M 18.3125 70.21875 
L 18.3125 54.6875 
L 36.8125 54.6875 
L 36.8125 47.703125 
L 18.3125 47.703125 
L 18.3125 18.015625 
Q 18.3125 11.328125 20.140625 9.421875 
Q 21.96875 7.515625 27.59375 7.515625 
L 36.8125 7.515625 
L 36.8125 0 
L 27.59375 0 
Q 17.1875 0 13.234375 3.875 
Q 9.28125 7.765625 9.28125 18.015625 
L 9.28125 47.703125 
L 2.6875 47.703125 
L 2.6875 54.6875 
L 9.28125 54.6875 
L 9.28125 70.21875 
z
" id="DejaVuSans-116"/>
       <path d="M 56.203125 29.59375 
L 56.203125 25.203125 
L 14.890625 25.203125 
Q 15.484375 15.921875 20.484375 11.0625 
Q 25.484375 6.203125 34.421875 6.203125 
Q 39.59375 6.203125 44.453125 7.46875 
Q 49.3125 8.734375 54.109375 11.28125 
L 54.109375 2.78125 
Q 49.265625 0.734375 44.1875 -0.34375 
Q 39.109375 -1.421875 33.890625 -1.421875 
Q 20.796875 -1.421875 13.15625 6.1875 
Q 5.515625 13.8125 5.515625 26.8125 
Q 5.515625 40.234375 12.765625 48.109375 
Q 20.015625 56 32.328125 56 
Q 43.359375 56 49.78125 48.890625 
Q 56.203125 41.796875 56.203125 29.59375 
z
M 47.21875 32.234375 
Q 47.125 39.59375 43.09375 43.984375 
Q 39.0625 48.390625 32.421875 48.390625 
Q 24.90625 48.390625 20.390625 44.140625 
Q 15.875 39.890625 15.1875 32.171875 
z
" id="DejaVuSans-101"/>
       <path d="M 41.109375 46.296875 
Q 39.59375 47.171875 37.8125 47.578125 
Q 36.03125 48 33.890625 48 
Q 26.265625 48 22.1875 43.046875 
Q 18.109375 38.09375 18.109375 28.8125 
L 18.109375 0 
L 9.078125 0 
L 9.078125 54.6875 
L 18.109375 54.6875 
L 18.109375 46.1875 
Q 20.953125 51.171875 25.484375 53.578125 
Q 30.03125 56 36.53125 56 
Q 37.453125 56 38.578125 55.875 
Q 39.703125 55.765625 41.0625 55.515625 
z
" id="DejaVuSans-114"/>
       <path d="M 44.28125 53.078125 
L 44.28125 44.578125 
Q 40.484375 46.53125 36.375 47.5 
Q 32.28125 48.484375 27.875 48.484375 
Q 21.1875 48.484375 17.84375 46.4375 
Q 14.5 44.390625 14.5 40.28125 
Q 14.5 37.15625 16.890625 35.375 
Q 19.28125 33.59375 26.515625 31.984375 
L 29.59375 31.296875 
Q 39.15625 29.25 43.1875 25.515625 
Q 47.21875 21.78125 47.21875 15.09375 
Q 47.21875 7.46875 41.1875 3.015625 
Q 35.15625 -1.421875 24.609375 -1.421875 
Q 20.21875 -1.421875 15.453125 -0.5625 
Q 10.6875 0.296875 5.421875 2 
L 5.421875 11.28125 
Q 10.40625 8.6875 15.234375 7.390625 
Q 20.0625 6.109375 24.8125 6.109375 
Q 31.15625 6.109375 34.5625 8.28125 
Q 37.984375 10.453125 37.984375 14.40625 
Q 37.984375 18.0625 35.515625 20.015625 
Q 33.0625 21.96875 24.703125 23.78125 
L 21.578125 24.515625 
Q 13.234375 26.265625 9.515625 29.90625 
Q 5.8125 33.546875 5.8125 39.890625 
Q 5.8125 47.609375 11.28125 51.796875 
Q 16.75 56 26.8125 56 
Q 31.78125 56 36.171875 55.265625 
Q 40.578125 54.546875 44.28125 53.078125 
z
" id="DejaVuSans-115"/>
       <path d="M 9.421875 54.6875 
L 18.40625 54.6875 
L 18.40625 0 
L 9.421875 0 
z
M 9.421875 75.984375 
L 18.40625 75.984375 
L 18.40625 64.59375 
L 9.421875 64.59375 
z
" id="DejaVuSans-105"/>
       <path d="M 9.421875 75.984375 
L 18.40625 75.984375 
L 18.40625 0 
L 9.421875 0 
z
" id="DejaVuSans-108"/>
       <path id="DejaVuSans-32"/>
       <path d="M 54.890625 33.015625 
L 54.890625 0 
L 45.90625 0 
L 45.90625 32.71875 
Q 45.90625 40.484375 42.875 44.328125 
Q 39.84375 48.1875 33.796875 48.1875 
Q 26.515625 48.1875 22.3125 43.546875 
Q 18.109375 38.921875 18.109375 30.90625 
L 18.109375 0 
L 9.078125 0 
L 9.078125 54.6875 
L 18.109375 54.6875 
L 18.109375 46.1875 
Q 21.34375 51.125 25.703125 53.5625 
Q 30.078125 56 35.796875 56 
Q 45.21875 56 50.046875 50.171875 
Q 54.890625 44.34375 54.890625 33.015625 
z
" id="DejaVuSans-110"/>
       <path d="M 34.28125 27.484375 
Q 23.390625 27.484375 19.1875 25 
Q 14.984375 22.515625 14.984375 16.5 
Q 14.984375 11.71875 18.140625 8.90625 
Q 21.296875 6.109375 26.703125 6.109375 
Q 34.1875 6.109375 38.703125 11.40625 
Q 43.21875 16.703125 43.21875 25.484375 
L 43.21875 27.484375 
z
M 52.203125 31.203125 
L 52.203125 0 
L 43.21875 0 
L 43.21875 8.296875 
Q 40.140625 3.328125 35.546875 0.953125 
Q 30.953125 -1.421875 24.3125 -1.421875 
Q 15.921875 -1.421875 10.953125 3.296875 
Q 6 8.015625 6 15.921875 
Q 6 25.140625 12.171875 29.828125 
Q 18.359375 34.515625 30.609375 34.515625 
L 43.21875 34.515625 
L 43.21875 35.40625 
Q 43.21875 41.609375 39.140625 45 
Q 35.0625 48.390625 27.6875 48.390625 
Q 23 48.390625 18.546875 47.265625 
Q 14.109375 46.140625 10.015625 43.890625 
L 10.015625 52.203125 
Q 14.9375 54.109375 19.578125 55.046875 
Q 24.21875 56 28.609375 56 
Q 40.484375 56 46.34375 49.84375 
Q 52.203125 43.703125 52.203125 31.203125 
z
" id="DejaVuSans-97"/>
       <path d="M 48.78125 52.59375 
L 48.78125 44.1875 
Q 44.96875 46.296875 41.140625 47.34375 
Q 37.3125 48.390625 33.40625 48.390625 
Q 24.65625 48.390625 19.8125 42.84375 
Q 14.984375 37.3125 14.984375 27.296875 
Q 14.984375 17.28125 19.8125 11.734375 
Q 24.65625 6.203125 33.40625 6.203125 
Q 37.3125 6.203125 41.140625 7.25 
Q 44.96875 8.296875 48.78125 10.40625 
L 48.78125 2.09375 
Q 45.015625 0.34375 40.984375 -0.53125 
Q 36.96875 -1.421875 32.421875 -1.421875 
Q 20.0625 -1.421875 12.78125 6.34375 
Q 5.515625 14.109375 5.515625 27.296875 
Q 5.515625 40.671875 12.859375 48.328125 
Q 20.21875 56 33.015625 56 
Q 37.15625 56 41.109375 55.140625 
Q 45.0625 54.296875 48.78125 52.59375 
z
" id="DejaVuSans-99"/>
       <path d="M 54.890625 33.015625 
L 54.890625 0 
L 45.90625 0 
L 45.90625 32.71875 
Q 45.90625 40.484375 42.875 44.328125 
Q 39.84375 48.1875 33.796875 48.1875 
Q 26.515625 48.1875 22.3125 43.546875 
Q 18.109375 38.921875 18.109375 30.90625 
L 18.109375 0 
L 9.078125 0 
L 9.078125 75.984375 
L 18.109375 75.984375 
L 18.109375 46.1875 
Q 21.34375 51.125 25.703125 53.5625 
Q 30.078125 56 35.796875 56 
Q 45.21875 56 50.046875 50.171875 
Q 54.890625 44.34375 54.890625 33.015625 
z
" id="DejaVuSans-104"/>
       <path d="M 19.671875 64.796875 
L 19.671875 37.40625 
L 32.078125 37.40625 
Q 38.96875 37.40625 42.71875 40.96875 
Q 46.484375 44.53125 46.484375 51.125 
Q 46.484375 57.671875 42.71875 61.234375 
Q 38.96875 64.796875 32.078125 64.796875 
z
M 9.8125 72.90625 
L 32.078125 72.90625 
Q 44.34375 72.90625 50.609375 67.359375 
Q 56.890625 61.8125 56.890625 51.125 
Q 56.890625 40.328125 50.609375 34.8125 
Q 44.34375 29.296875 32.078125 29.296875 
L 19.671875 29.296875 
L 19.671875 0 
L 9.8125 0 
z
" id="DejaVuSans-80"/>
       <path d="M 37.109375 75.984375 
L 37.109375 68.5 
L 28.515625 68.5 
Q 23.6875 68.5 21.796875 66.546875 
Q 19.921875 64.59375 19.921875 59.515625 
L 19.921875 54.6875 
L 34.71875 54.6875 
L 34.71875 47.703125 
L 19.921875 47.703125 
L 19.921875 0 
L 10.890625 0 
L 10.890625 47.703125 
L 2.296875 47.703125 
L 2.296875 54.6875 
L 10.890625 54.6875 
L 10.890625 58.5 
Q 10.890625 67.625 15.140625 71.796875 
Q 19.390625 75.984375 28.609375 75.984375 
z
" id="DejaVuSans-102"/>
      </defs>
      <g transform="translate(191.615375 637.728125)rotate(-90)scale(0.1 -0.1)">
       <use xlink:href="#DejaVuSans-67"/>
       <use x="69.824219" xlink:href="#DejaVuSans-111"/>
       <use x="131.005859" xlink:href="#DejaVuSans-109"/>
       <use x="228.417969" xlink:href="#DejaVuSans-112"/>
       <use x="291.894531" xlink:href="#DejaVuSans-117"/>
       <use x="355.273438" xlink:href="#DejaVuSans-116"/>
       <use x="394.482422" xlink:href="#DejaVuSans-101"/>
       <use x="456.005859" xlink:href="#DejaVuSans-114"/>
       <use x="497.119141" xlink:href="#DejaVuSans-115"/>
       <use x="549.21875" xlink:href="#DejaVuSans-112"/>
       <use x="612.695312" xlink:href="#DejaVuSans-105"/>
       <use x="640.478516" xlink:href="#DejaVuSans-101"/>
       <use x="702.001953" xlink:href="#DejaVuSans-108"/>
       <use x="729.785156" xlink:href="#DejaVuSans-32"/>
       <use x="761.572266" xlink:href="#DejaVuSans-110"/>
       <use x="824.951172" xlink:href="#DejaVuSans-97"/>
       <use x="886.230469" xlink:href="#DejaVuSans-99"/>
       <use x="941.210938" xlink:href="#DejaVuSans-104"/>
       <use x="1004.589844" xlink:href="#DejaVuSans-32"/>
       <use x="1036.376953" xlink:href="#DejaVuSans-80"/>
       <use x="1096.679688" xlink:href="#DejaVuSans-108"/>
       <use x="1124.462891" xlink:href="#DejaVuSans-97"/>
       <use x="1185.742188" xlink:href="#DejaVuSans-116"/>
       <use x="1224.951172" xlink:href="#DejaVuSans-116"/>
       <use x="1264.160156" xlink:href="#DejaVuSans-102"/>
       <use x="1299.365234" xlink:href="#DejaVuSans-111"/>
       <use x="1360.546875" xlink:href="#DejaVuSans-114"/>
       <use x="1401.644531" xlink:href="#DejaVuSans-109"/>
      </g>
     </g>
    </g>
    <g id="xtick_2">
     <g id="line2d_2">
      <g>
       <use style="stroke:#000000;stroke-width:0.8;" x="232.218" xlink:href="#mb9306790de" y="480.825"/>
      </g>
     </g>
     <g id="text_2">
      <!-- Herrscher nach Titel -->
      <defs>
       <path d="M 9.8125 72.90625 
L 19.671875 72.90625 
L 19.671875 43.015625 
L 55.515625 43.015625 
L 55.515625 72.90625 
L 65.375 72.90625 
L 65.375 0 
L 55.515625 0 
L 55.515625 34.71875 
L 19.671875 34.71875 
L 19.671875 0 
L 9.8125 0 
z
" id="DejaVuSans-72"/>
       <path d="M -0.296875 72.90625 
L 61.375 72.90625 
L 61.375 64.59375 
L 35.5 64.59375 
L 35.5 0 
L 25.59375 0 
L 25.59375 64.59375 
L -0.296875 64.59375 
z
" id="DejaVuSans-84"/>
      </defs>
      <g transform="translate(234.977375 589.41875)rotate(-90)scale(0.1 -0.1)">
       <use xlink:href="#DejaVuSans-72"/>
       <use x="75.195312" xlink:href="#DejaVuSans-101"/>
       <use x="136.71875" xlink:href="#DejaVuSans-114"/>
       <use x="177.816406" xlink:href="#DejaVuSans-114"/>
       <use x="218.929688" xlink:href="#DejaVuSans-115"/>
       <use x="271.029297" xlink:href="#DejaVuSans-99"/>
       <use x="326.009766" xlink:href="#DejaVuSans-104"/>
       <use x="389.388672" xlink:href="#DejaVuSans-101"/>
       <use x="450.912109" xlink:href="#DejaVuSans-114"/>
       <use x="492.025391" xlink:href="#DejaVuSans-32"/>
       <use x="523.8125" xlink:href="#DejaVuSans-110"/>
       <use x="587.191406" xlink:href="#DejaVuSans-97"/>
       <use x="648.470703" xlink:href="#DejaVuSans-99"/>
       <use x="703.451172" xlink:href="#DejaVuSans-104"/>
       <use x="766.830078" xlink:href="#DejaVuSans-32"/>
       <use x="798.617188" xlink:href="#DejaVuSans-84"/>
       <use x="859.654297" xlink:href="#DejaVuSans-105"/>
       <use x="887.4375" xlink:href="#DejaVuSans-116"/>
       <use x="926.646484" xlink:href="#DejaVuSans-101"/>
       <use x="988.169922" xlink:href="#DejaVuSans-108"/>
      </g>
     </g>
    </g>
    <g id="xtick_3">
     <g id="line2d_3">
      <g>
       <use style="stroke:#000000;stroke-width:0.8;" x="275.58" xlink:href="#mb9306790de" y="480.825"/>
      </g>
     </g>
     <g id="text_3">
      <!-- Internet -->
      <defs>
       <path d="M 9.8125 72.90625 
L 19.671875 72.90625 
L 19.671875 0 
L 9.8125 0 
z
" id="DejaVuSans-73"/>
      </defs>
      <g transform="translate(278.339375 527.70625)rotate(-90)scale(0.1 -0.1)">
       <use xlink:href="#DejaVuSans-73"/>
       <use x="29.492188" xlink:href="#DejaVuSans-110"/>
       <use x="92.871094" xlink:href="#DejaVuSans-116"/>
       <use x="132.080078" xlink:href="#DejaVuSans-101"/>
       <use x="193.603516" xlink:href="#DejaVuSans-114"/>
       <use x="234.701172" xlink:href="#DejaVuSans-110"/>
       <use x="298.080078" xlink:href="#DejaVuSans-101"/>
       <use x="359.603516" xlink:href="#DejaVuSans-116"/>
      </g>
     </g>
    </g>
    <g id="xtick_4">
     <g id="line2d_4">
      <g>
       <use style="stroke:#000000;stroke-width:0.8;" x="318.942" xlink:href="#mb9306790de" y="480.825"/>
      </g>
     </g>
     <g id="text_4">
      <!-- Krankheit -->
      <defs>
       <path d="M 9.8125 72.90625 
L 19.671875 72.90625 
L 19.671875 42.09375 
L 52.390625 72.90625 
L 65.09375 72.90625 
L 28.90625 38.921875 
L 67.671875 0 
L 54.6875 0 
L 19.671875 35.109375 
L 19.671875 0 
L 9.8125 0 
z
" id="DejaVuSans-75"/>
       <path d="M 9.078125 75.984375 
L 18.109375 75.984375 
L 18.109375 31.109375 
L 44.921875 54.6875 
L 56.390625 54.6875 
L 27.390625 29.109375 
L 57.625 0 
L 45.90625 0 
L 18.109375 26.703125 
L 18.109375 0 
L 9.078125 0 
z
" id="DejaVuSans-107"/>
      </defs>
      <g transform="translate(321.701375 535.939063)rotate(-90)scale(0.1 -0.1)">
       <use xlink:href="#DejaVuSans-75"/>
       <use x="65.576172" xlink:href="#DejaVuSans-114"/>
       <use x="106.689453" xlink:href="#DejaVuSans-97"/>
       <use x="167.96875" xlink:href="#DejaVuSans-110"/>
       <use x="231.347656" xlink:href="#DejaVuSans-107"/>
       <use x="289.257812" xlink:href="#DejaVuSans-104"/>
       <use x="352.636719" xlink:href="#DejaVuSans-101"/>
       <use x="414.160156" xlink:href="#DejaVuSans-105"/>
       <use x="441.943359" xlink:href="#DejaVuSans-116"/>
      </g>
     </g>
    </g>
    <g id="xtick_5">
     <g id="line2d_5">
      <g>
       <use style="stroke:#000000;stroke-width:0.8;" x="362.304" xlink:href="#mb9306790de" y="480.825"/>
      </g>
     </g>
     <g id="text_5">
      <!-- Krieg nach Typ -->
      <defs>
       <path d="M 45.40625 27.984375 
Q 45.40625 37.75 41.375 43.109375 
Q 37.359375 48.484375 30.078125 48.484375 
Q 22.859375 48.484375 18.828125 43.109375 
Q 14.796875 37.75 14.796875 27.984375 
Q 14.796875 18.265625 18.828125 12.890625 
Q 22.859375 7.515625 30.078125 7.515625 
Q 37.359375 7.515625 41.375 12.890625 
Q 45.40625 18.265625 45.40625 27.984375 
z
M 54.390625 6.78125 
Q 54.390625 -7.171875 48.1875 -13.984375 
Q 42 -20.796875 29.203125 -20.796875 
Q 24.46875 -20.796875 20.265625 -20.09375 
Q 16.0625 -19.390625 12.109375 -17.921875 
L 12.109375 -9.1875 
Q 16.0625 -11.328125 19.921875 -12.34375 
Q 23.78125 -13.375 27.78125 -13.375 
Q 36.625 -13.375 41.015625 -8.765625 
Q 45.40625 -4.15625 45.40625 5.171875 
L 45.40625 9.625 
Q 42.625 4.78125 38.28125 2.390625 
Q 33.9375 0 27.875 0 
Q 17.828125 0 11.671875 7.65625 
Q 5.515625 15.328125 5.515625 27.984375 
Q 5.515625 40.671875 11.671875 48.328125 
Q 17.828125 56 27.875 56 
Q 33.9375 56 38.28125 53.609375 
Q 42.625 51.21875 45.40625 46.390625 
L 45.40625 54.6875 
L 54.390625 54.6875 
z
" id="DejaVuSans-103"/>
       <path d="M 32.171875 -5.078125 
Q 28.375 -14.84375 24.75 -17.8125 
Q 21.140625 -20.796875 15.09375 -20.796875 
L 7.90625 -20.796875 
L 7.90625 -13.28125 
L 13.1875 -13.28125 
Q 16.890625 -13.28125 18.9375 -11.515625 
Q 21 -9.765625 23.484375 -3.21875 
L 25.09375 0.875 
L 2.984375 54.6875 
L 12.5 54.6875 
L 29.59375 11.921875 
L 46.6875 54.6875 
L 56.203125 54.6875 
z
" id="DejaVuSans-121"/>
      </defs>
      <g transform="translate(365.063375 562.782813)rotate(-90)scale(0.1 -0.1)">
       <use xlink:href="#DejaVuSans-75"/>
       <use x="65.576172" xlink:href="#DejaVuSans-114"/>
       <use x="106.689453" xlink:href="#DejaVuSans-105"/>
       <use x="134.472656" xlink:href="#DejaVuSans-101"/>
       <use x="195.996094" xlink:href="#DejaVuSans-103"/>
       <use x="259.472656" xlink:href="#DejaVuSans-32"/>
       <use x="291.259766" xlink:href="#DejaVuSans-110"/>
       <use x="354.638672" xlink:href="#DejaVuSans-97"/>
       <use x="415.917969" xlink:href="#DejaVuSans-99"/>
       <use x="470.898438" xlink:href="#DejaVuSans-104"/>
       <use x="534.277344" xlink:href="#DejaVuSans-32"/>
       <use x="566.064453" xlink:href="#DejaVuSans-84"/>
       <use x="626.914062" xlink:href="#DejaVuSans-121"/>
       <use x="686.09375" xlink:href="#DejaVuSans-112"/>
      </g>
     </g>
    </g>
    <g id="xtick_6">
     <g id="line2d_6">
      <g>
       <use style="stroke:#000000;stroke-width:0.8;" x="405.666" xlink:href="#mb9306790de" y="480.825"/>
      </g>
     </g>
     <g id="text_6">
      <!-- Literaturwissenschaft -->
      <defs>
       <path d="M 9.8125 72.90625 
L 19.671875 72.90625 
L 19.671875 8.296875 
L 55.171875 8.296875 
L 55.171875 0 
L 9.8125 0 
z
" id="DejaVuSans-76"/>
       <path d="M 4.203125 54.6875 
L 13.1875 54.6875 
L 24.421875 12.015625 
L 35.59375 54.6875 
L 46.1875 54.6875 
L 57.421875 12.015625 
L 68.609375 54.6875 
L 77.59375 54.6875 
L 63.28125 0 
L 52.6875 0 
L 40.921875 44.828125 
L 29.109375 0 
L 18.5 0 
z
" id="DejaVuSans-119"/>
      </defs>
      <g transform="translate(408.425375 595.334375)rotate(-90)scale(0.1 -0.1)">
       <use xlink:href="#DejaVuSans-76"/>
       <use x="55.712891" xlink:href="#DejaVuSans-105"/>
       <use x="83.496094" xlink:href="#DejaVuSans-116"/>
       <use x="122.705078" xlink:href="#DejaVuSans-101"/>
       <use x="184.228516" xlink:href="#DejaVuSans-114"/>
       <use x="225.341797" xlink:href="#DejaVuSans-97"/>
       <use x="286.621094" xlink:href="#DejaVuSans-116"/>
       <use x="325.830078" xlink:href="#DejaVuSans-117"/>
       <use x="389.208984" xlink:href="#DejaVuSans-114"/>
       <use x="430.322266" xlink:href="#DejaVuSans-119"/>
       <use x="512.109375" xlink:href="#DejaVuSans-105"/>
       <use x="539.892578" xlink:href="#DejaVuSans-115"/>
       <use x="591.992188" xlink:href="#DejaVuSans-115"/>
       <use x="644.091797" xlink:href="#DejaVuSans-101"/>
       <use x="705.615234" xlink:href="#DejaVuSans-110"/>
       <use x="768.994141" xlink:href="#DejaVuSans-115"/>
       <use x="821.09375" xlink:href="#DejaVuSans-99"/>
       <use x="876.074219" xlink:href="#DejaVuSans-104"/>
       <use x="939.453125" xlink:href="#DejaVuSans-97"/>
       <use x="1000.732422" xlink:href="#DejaVuSans-102"/>
       <use x="1035.921875" xlink:href="#DejaVuSans-116"/>
      </g>
     </g>
    </g>
    <g id="xtick_7">
     <g id="line2d_7">
      <g>
       <use style="stroke:#000000;stroke-width:0.8;" x="449.028" xlink:href="#mb9306790de" y="480.825"/>
      </g>
     </g>
     <g id="text_7">
      <!-- Millionenstadt -->
      <defs>
       <path d="M 9.8125 72.90625 
L 24.515625 72.90625 
L 43.109375 23.296875 
L 61.8125 72.90625 
L 76.515625 72.90625 
L 76.515625 0 
L 66.890625 0 
L 66.890625 64.015625 
L 48.09375 14.015625 
L 38.1875 14.015625 
L 19.390625 64.015625 
L 19.390625 0 
L 9.8125 0 
z
" id="DejaVuSans-77"/>
       <path d="M 45.40625 46.390625 
L 45.40625 75.984375 
L 54.390625 75.984375 
L 54.390625 0 
L 45.40625 0 
L 45.40625 8.203125 
Q 42.578125 3.328125 38.25 0.953125 
Q 33.9375 -1.421875 27.875 -1.421875 
Q 17.96875 -1.421875 11.734375 6.484375 
Q 5.515625 14.40625 5.515625 27.296875 
Q 5.515625 40.1875 11.734375 48.09375 
Q 17.96875 56 27.875 56 
Q 33.9375 56 38.25 53.625 
Q 42.578125 51.265625 45.40625 46.390625 
z
M 14.796875 27.296875 
Q 14.796875 17.390625 18.875 11.75 
Q 22.953125 6.109375 30.078125 6.109375 
Q 37.203125 6.109375 41.296875 11.75 
Q 45.40625 17.390625 45.40625 27.296875 
Q 45.40625 37.203125 41.296875 42.84375 
Q 37.203125 48.484375 30.078125 48.484375 
Q 22.953125 48.484375 18.875 42.84375 
Q 14.796875 37.203125 14.796875 27.296875 
z
" id="DejaVuSans-100"/>
      </defs>
      <g transform="translate(451.787375 558.039062)rotate(-90)scale(0.1 -0.1)">
       <use xlink:href="#DejaVuSans-77"/>
       <use x="86.279297" xlink:href="#DejaVuSans-105"/>
       <use x="114.0625" xlink:href="#DejaVuSans-108"/>
       <use x="141.845703" xlink:href="#DejaVuSans-108"/>
       <use x="169.628906" xlink:href="#DejaVuSans-105"/>
       <use x="197.412109" xlink:href="#DejaVuSans-111"/>
       <use x="258.59375" xlink:href="#DejaVuSans-110"/>
       <use x="321.972656" xlink:href="#DejaVuSans-101"/>
       <use x="383.496094" xlink:href="#DejaVuSans-110"/>
       <use x="446.875" xlink:href="#DejaVuSans-115"/>
       <use x="498.974609" xlink:href="#DejaVuSans-116"/>
       <use x="538.183594" xlink:href="#DejaVuSans-97"/>
       <use x="599.462891" xlink:href="#DejaVuSans-100"/>
       <use x="662.939453" xlink:href="#DejaVuSans-116"/>
      </g>
     </g>
    </g>
    <g id="xtick_8">
     <g id="line2d_8">
      <g>
       <use style="stroke:#000000;stroke-width:0.8;" x="492.39" xlink:href="#mb9306790de" y="480.825"/>
      </g>
     </g>
     <g id="text_8">
      <!-- Oper -->
      <defs>
       <path d="M 39.40625 66.21875 
Q 28.65625 66.21875 22.328125 58.203125 
Q 16.015625 50.203125 16.015625 36.375 
Q 16.015625 22.609375 22.328125 14.59375 
Q 28.65625 6.59375 39.40625 6.59375 
Q 50.140625 6.59375 56.421875 14.59375 
Q 62.703125 22.609375 62.703125 36.375 
Q 62.703125 50.203125 56.421875 58.203125 
Q 50.140625 66.21875 39.40625 66.21875 
z
M 39.40625 74.21875 
Q 54.734375 74.21875 63.90625 63.9375 
Q 73.09375 53.65625 73.09375 36.375 
Q 73.09375 19.140625 63.90625 8.859375 
Q 54.734375 -1.421875 39.40625 -1.421875 
Q 24.03125 -1.421875 14.8125 8.828125 
Q 5.609375 19.09375 5.609375 36.375 
Q 5.609375 53.65625 14.8125 63.9375 
Q 24.03125 74.21875 39.40625 74.21875 
z
" id="DejaVuSans-79"/>
      </defs>
      <g transform="translate(495.149375 512.309375)rotate(-90)scale(0.1 -0.1)">
       <use xlink:href="#DejaVuSans-79"/>
       <use x="78.710938" xlink:href="#DejaVuSans-112"/>
       <use x="142.1875" xlink:href="#DejaVuSans-101"/>
       <use x="203.710938" xlink:href="#DejaVuSans-114"/>
      </g>
     </g>
    </g>
    <g id="xtick_9">
     <g id="line2d_9">
      <g>
       <use style="stroke:#000000;stroke-width:0.8;" x="535.752" xlink:href="#mb9306790de" y="480.825"/>
      </g>
     </g>
     <g id="text_9">
      <!-- Wald -->
      <defs>
       <path d="M 3.328125 72.90625 
L 13.28125 72.90625 
L 28.609375 11.28125 
L 43.890625 72.90625 
L 54.984375 72.90625 
L 70.3125 11.28125 
L 85.59375 72.90625 
L 95.609375 72.90625 
L 77.296875 0 
L 64.890625 0 
L 49.515625 63.28125 
L 33.984375 0 
L 21.578125 0 
z
" id="DejaVuSans-87"/>
      </defs>
      <g transform="translate(538.511375 512.957813)rotate(-90)scale(0.1 -0.1)">
       <use xlink:href="#DejaVuSans-87"/>
       <use x="98.783203" xlink:href="#DejaVuSans-97"/>
       <use x="160.0625" xlink:href="#DejaVuSans-108"/>
       <use x="187.845703" xlink:href="#DejaVuSans-100"/>
      </g>
     </g>
    </g>
    <g id="xtick_10">
     <g id="line2d_10">
      <g>
       <use style="stroke:#000000;stroke-width:0.8;" x="579.114" xlink:href="#mb9306790de" y="480.825"/>
      </g>
     </g>
     <g id="text_10">
      <!-- Wirtschaft -->
      <g transform="translate(581.873375 539.13125)rotate(-90)scale(0.1 -0.1)">
       <use xlink:href="#DejaVuSans-87"/>
       <use x="98.845703" xlink:href="#DejaVuSans-105"/>
       <use x="126.628906" xlink:href="#DejaVuSans-114"/>
       <use x="167.742188" xlink:href="#DejaVuSans-116"/>
       <use x="206.951172" xlink:href="#DejaVuSans-115"/>
       <use x="259.050781" xlink:href="#DejaVuSans-99"/>
       <use x="314.03125" xlink:href="#DejaVuSans-104"/>
       <use x="377.410156" xlink:href="#DejaVuSans-97"/>
       <use x="438.689453" xlink:href="#DejaVuSans-102"/>
       <use x="473.878906" xlink:href="#DejaVuSans-116"/>
      </g>
     </g>
    </g>
   </g>
   <g id="matplotlib.axis_2">
    <g id="ytick_1">
     <g id="line2d_11">
      <defs>
       <path d="M 0 0 
L -3.5 0 
" id="m98d8eeebba" style="stroke:#000000;stroke-width:0.8;"/>
      </defs>
      <g>
       <use style="stroke:#000000;stroke-width:0.8;" x="167.175" xlink:href="#m98d8eeebba" y="38.10125"/>
      </g>
     </g>
     <g id="text_11">
      <!-- Computerspiel nach Plattform -->
      <g transform="translate(10.271875 41.900469)scale(0.1 -0.1)">
       <use xlink:href="#DejaVuSans-67"/>
       <use x="69.824219" xlink:href="#DejaVuSans-111"/>
       <use x="131.005859" xlink:href="#DejaVuSans-109"/>
       <use x="228.417969" xlink:href="#DejaVuSans-112"/>
       <use x="291.894531" xlink:href="#DejaVuSans-117"/>
       <use x="355.273438" xlink:href="#DejaVuSans-116"/>
       <use x="394.482422" xlink:href="#DejaVuSans-101"/>
       <use x="456.005859" xlink:href="#DejaVuSans-114"/>
       <use x="497.119141" xlink:href="#DejaVuSans-115"/>
       <use x="549.21875" xlink:href="#DejaVuSans-112"/>
       <use x="612.695312" xlink:href="#DejaVuSans-105"/>
       <use x="640.478516" xlink:href="#DejaVuSans-101"/>
       <use x="702.001953" xlink:href="#DejaVuSans-108"/>
       <use x="729.785156" xlink:href="#DejaVuSans-32"/>
       <use x="761.572266" xlink:href="#DejaVuSans-110"/>
       <use x="824.951172" xlink:href="#DejaVuSans-97"/>
       <use x="886.230469" xlink:href="#DejaVuSans-99"/>
       <use x="941.210938" xlink:href="#DejaVuSans-104"/>
       <use x="1004.589844" xlink:href="#DejaVuSans-32"/>
       <use x="1036.376953" xlink:href="#DejaVuSans-80"/>
       <use x="1096.679688" xlink:href="#DejaVuSans-108"/>
       <use x="1124.462891" xlink:href="#DejaVuSans-97"/>
       <use x="1185.742188" xlink:href="#DejaVuSans-116"/>
       <use x="1224.951172" xlink:href="#DejaVuSans-116"/>
       <use x="1264.160156" xlink:href="#DejaVuSans-102"/>
       <use x="1299.365234" xlink:href="#DejaVuSans-111"/>
       <use x="1360.546875" xlink:href="#DejaVuSans-114"/>
       <use x="1401.644531" xlink:href="#DejaVuSans-109"/>
      </g>
     </g>
    </g>
    <g id="ytick_2">
     <g id="line2d_12">
      <g>
       <use style="stroke:#000000;stroke-width:0.8;" x="167.175" xlink:href="#m98d8eeebba" y="84.70375"/>
      </g>
     </g>
     <g id="text_12">
      <!-- Herrscher nach Titel -->
      <g transform="translate(58.58125 88.502969)scale(0.1 -0.1)">
       <use xlink:href="#DejaVuSans-72"/>
       <use x="75.195312" xlink:href="#DejaVuSans-101"/>
       <use x="136.71875" xlink:href="#DejaVuSans-114"/>
       <use x="177.816406" xlink:href="#DejaVuSans-114"/>
       <use x="218.929688" xlink:href="#DejaVuSans-115"/>
       <use x="271.029297" xlink:href="#DejaVuSans-99"/>
       <use x="326.009766" xlink:href="#DejaVuSans-104"/>
       <use x="389.388672" xlink:href="#DejaVuSans-101"/>
       <use x="450.912109" xlink:href="#DejaVuSans-114"/>
       <use x="492.025391" xlink:href="#DejaVuSans-32"/>
       <use x="523.8125" xlink:href="#DejaVuSans-110"/>
       <use x="587.191406" xlink:href="#DejaVuSans-97"/>
       <use x="648.470703" xlink:href="#DejaVuSans-99"/>
       <use x="703.451172" xlink:href="#DejaVuSans-104"/>
       <use x="766.830078" xlink:href="#DejaVuSans-32"/>
       <use x="798.617188" xlink:href="#DejaVuSans-84"/>
       <use x="859.654297" xlink:href="#DejaVuSans-105"/>
       <use x="887.4375" xlink:href="#DejaVuSans-116"/>
       <use x="926.646484" xlink:href="#DejaVuSans-101"/>
       <use x="988.169922" xlink:href="#DejaVuSans-108"/>
      </g>
     </g>
    </g>
    <g id="ytick_3">
     <g id="line2d_13">
      <g>
       <use style="stroke:#000000;stroke-width:0.8;" x="167.175" xlink:href="#m98d8eeebba" y="131.30625"/>
      </g>
     </g>
     <g id="text_13">
      <!-- Internet -->
      <g transform="translate(120.29375 135.105469)scale(0.1 -0.1)">
       <use xlink:href="#DejaVuSans-73"/>
       <use x="29.492188" xlink:href="#DejaVuSans-110"/>
       <use x="92.871094" xlink:href="#DejaVuSans-116"/>
       <use x="132.080078" xlink:href="#DejaVuSans-101"/>
       <use x="193.603516" xlink:href="#DejaVuSans-114"/>
       <use x="234.701172" xlink:href="#DejaVuSans-110"/>
       <use x="298.080078" xlink:href="#DejaVuSans-101"/>
       <use x="359.603516" xlink:href="#DejaVuSans-116"/>
      </g>
     </g>
    </g>
    <g id="ytick_4">
     <g id="line2d_14">
      <g>
       <use style="stroke:#000000;stroke-width:0.8;" x="167.175" xlink:href="#m98d8eeebba" y="177.90875"/>
      </g>
     </g>
     <g id="text_14">
      <!-- Krankheit -->
      <g transform="translate(112.060938 181.707969)scale(0.1 -0.1)">
       <use xlink:href="#DejaVuSans-75"/>
       <use x="65.576172" xlink:href="#DejaVuSans-114"/>
       <use x="106.689453" xlink:href="#DejaVuSans-97"/>
       <use x="167.96875" xlink:href="#DejaVuSans-110"/>
       <use x="231.347656" xlink:href="#DejaVuSans-107"/>
       <use x="289.257812" xlink:href="#DejaVuSans-104"/>
       <use x="352.636719" xlink:href="#DejaVuSans-101"/>
       <use x="414.160156" xlink:href="#DejaVuSans-105"/>
       <use x="441.943359" xlink:href="#DejaVuSans-116"/>
      </g>
     </g>
    </g>
    <g id="ytick_5">
     <g id="line2d_15">
      <g>
       <use style="stroke:#000000;stroke-width:0.8;" x="167.175" xlink:href="#m98d8eeebba" y="224.51125"/>
      </g>
     </g>
     <g id="text_15">
      <!-- Krieg nach Typ -->
      <g transform="translate(85.217188 228.310469)scale(0.1 -0.1)">
       <use xlink:href="#DejaVuSans-75"/>
       <use x="65.576172" xlink:href="#DejaVuSans-114"/>
       <use x="106.689453" xlink:href="#DejaVuSans-105"/>
       <use x="134.472656" xlink:href="#DejaVuSans-101"/>
       <use x="195.996094" xlink:href="#DejaVuSans-103"/>
       <use x="259.472656" xlink:href="#DejaVuSans-32"/>
       <use x="291.259766" xlink:href="#DejaVuSans-110"/>
       <use x="354.638672" xlink:href="#DejaVuSans-97"/>
       <use x="415.917969" xlink:href="#DejaVuSans-99"/>
       <use x="470.898438" xlink:href="#DejaVuSans-104"/>
       <use x="534.277344" xlink:href="#DejaVuSans-32"/>
       <use x="566.064453" xlink:href="#DejaVuSans-84"/>
       <use x="626.914062" xlink:href="#DejaVuSans-121"/>
       <use x="686.09375" xlink:href="#DejaVuSans-112"/>
      </g>
     </g>
    </g>
    <g id="ytick_6">
     <g id="line2d_16">
      <g>
       <use style="stroke:#000000;stroke-width:0.8;" x="167.175" xlink:href="#m98d8eeebba" y="271.11375"/>
      </g>
     </g>
     <g id="text_16">
      <!-- Literaturwissenschaft -->
      <g transform="translate(52.665625 274.912969)scale(0.1 -0.1)">
       <use xlink:href="#DejaVuSans-76"/>
       <use x="55.712891" xlink:href="#DejaVuSans-105"/>
       <use x="83.496094" xlink:href="#DejaVuSans-116"/>
       <use x="122.705078" xlink:href="#DejaVuSans-101"/>
       <use x="184.228516" xlink:href="#DejaVuSans-114"/>
       <use x="225.341797" xlink:href="#DejaVuSans-97"/>
       <use x="286.621094" xlink:href="#DejaVuSans-116"/>
       <use x="325.830078" xlink:href="#DejaVuSans-117"/>
       <use x="389.208984" xlink:href="#DejaVuSans-114"/>
       <use x="430.322266" xlink:href="#DejaVuSans-119"/>
       <use x="512.109375" xlink:href="#DejaVuSans-105"/>
       <use x="539.892578" xlink:href="#DejaVuSans-115"/>
       <use x="591.992188" xlink:href="#DejaVuSans-115"/>
       <use x="644.091797" xlink:href="#DejaVuSans-101"/>
       <use x="705.615234" xlink:href="#DejaVuSans-110"/>
       <use x="768.994141" xlink:href="#DejaVuSans-115"/>
       <use x="821.09375" xlink:href="#DejaVuSans-99"/>
       <use x="876.074219" xlink:href="#DejaVuSans-104"/>
       <use x="939.453125" xlink:href="#DejaVuSans-97"/>
       <use x="1000.732422" xlink:href="#DejaVuSans-102"/>
       <use x="1035.921875" xlink:href="#DejaVuSans-116"/>
      </g>
     </g>
    </g>
    <g id="ytick_7">
     <g id="line2d_17">
      <g>
       <use style="stroke:#000000;stroke-width:0.8;" x="167.175" xlink:href="#m98d8eeebba" y="317.71625"/>
      </g>
     </g>
     <g id="text_17">
      <!-- Millionenstadt -->
      <g transform="translate(89.960938 321.515469)scale(0.1 -0.1)">
       <use xlink:href="#DejaVuSans-77"/>
       <use x="86.279297" xlink:href="#DejaVuSans-105"/>
       <use x="114.0625" xlink:href="#DejaVuSans-108"/>
       <use x="141.845703" xlink:href="#DejaVuSans-108"/>
       <use x="169.628906" xlink:href="#DejaVuSans-105"/>
       <use x="197.412109" xlink:href="#DejaVuSans-111"/>
       <use x="258.59375" xlink:href="#DejaVuSans-110"/>
       <use x="321.972656" xlink:href="#DejaVuSans-101"/>
       <use x="383.496094" xlink:href="#DejaVuSans-110"/>
       <use x="446.875" xlink:href="#DejaVuSans-115"/>
       <use x="498.974609" xlink:href="#DejaVuSans-116"/>
       <use x="538.183594" xlink:href="#DejaVuSans-97"/>
       <use x="599.462891" xlink:href="#DejaVuSans-100"/>
       <use x="662.939453" xlink:href="#DejaVuSans-116"/>
      </g>
     </g>
    </g>
    <g id="ytick_8">
     <g id="line2d_18">
      <g>
       <use style="stroke:#000000;stroke-width:0.8;" x="167.175" xlink:href="#m98d8eeebba" y="364.31875"/>
      </g>
     </g>
     <g id="text_18">
      <!-- Oper -->
      <g transform="translate(135.690625 368.117969)scale(0.1 -0.1)">
       <use xlink:href="#DejaVuSans-79"/>
       <use x="78.710938" xlink:href="#DejaVuSans-112"/>
       <use x="142.1875" xlink:href="#DejaVuSans-101"/>
       <use x="203.710938" xlink:href="#DejaVuSans-114"/>
      </g>
     </g>
    </g>
    <g id="ytick_9">
     <g id="line2d_19">
      <g>
       <use style="stroke:#000000;stroke-width:0.8;" x="167.175" xlink:href="#m98d8eeebba" y="410.92125"/>
      </g>
     </g>
     <g id="text_19">
      <!-- Wald -->
      <g transform="translate(135.042188 414.720469)scale(0.1 -0.1)">
       <use xlink:href="#DejaVuSans-87"/>
       <use x="98.783203" xlink:href="#DejaVuSans-97"/>
       <use x="160.0625" xlink:href="#DejaVuSans-108"/>
       <use x="187.845703" xlink:href="#DejaVuSans-100"/>
      </g>
     </g>
    </g>
    <g id="ytick_10">
     <g id="line2d_20">
      <g>
       <use style="stroke:#000000;stroke-width:0.8;" x="167.175" xlink:href="#m98d8eeebba" y="457.52375"/>
      </g>
     </g>
     <g id="text_20">
      <!-- Wirtschaft -->
      <g transform="translate(108.86875 461.322969)scale(0.1 -0.1)">
       <use xlink:href="#DejaVuSans-87"/>
       <use x="98.845703" xlink:href="#DejaVuSans-105"/>
       <use x="126.628906" xlink:href="#DejaVuSans-114"/>
       <use x="167.742188" xlink:href="#DejaVuSans-116"/>
       <use x="206.951172" xlink:href="#DejaVuSans-115"/>
       <use x="259.050781" xlink:href="#DejaVuSans-99"/>
       <use x="314.03125" xlink:href="#DejaVuSans-104"/>
       <use x="377.410156" xlink:href="#DejaVuSans-97"/>
       <use x="438.689453" xlink:href="#DejaVuSans-102"/>
       <use x="473.878906" xlink:href="#DejaVuSans-116"/>
      </g>
     </g>
    </g>
   </g>
   <g id="text_21">
    <!-- 11 -->
    <defs>
     <path d="M 12.40625 8.296875 
L 28.515625 8.296875 
L 28.515625 63.921875 
L 10.984375 60.40625 
L 10.984375 69.390625 
L 28.421875 72.90625 
L 38.28125 72.90625 
L 38.28125 8.296875 
L 54.390625 8.296875 
L 54.390625 0 
L 12.40625 0 
z
" id="DejaVuSans-49"/>
    </defs>
    <g style="fill:#ffffff;" transform="translate(182.4935 40.860625)scale(0.1 -0.1)">
     <use xlink:href="#DejaVuSans-49"/>
     <use x="63.623047" xlink:href="#DejaVuSans-49"/>
    </g>
   </g>
   <g id="text_22">
    <!-- 0 -->
    <defs>
     <path d="M 31.78125 66.40625 
Q 24.171875 66.40625 20.328125 58.90625 
Q 16.5 51.421875 16.5 36.375 
Q 16.5 21.390625 20.328125 13.890625 
Q 24.171875 6.390625 31.78125 6.390625 
Q 39.453125 6.390625 43.28125 13.890625 
Q 47.125 21.390625 47.125 36.375 
Q 47.125 51.421875 43.28125 58.90625 
Q 39.453125 66.40625 31.78125 66.40625 
z
M 31.78125 74.21875 
Q 44.046875 74.21875 50.515625 64.515625 
Q 56.984375 54.828125 56.984375 36.375 
Q 56.984375 17.96875 50.515625 8.265625 
Q 44.046875 -1.421875 31.78125 -1.421875 
Q 19.53125 -1.421875 13.0625 8.265625 
Q 6.59375 17.96875 6.59375 36.375 
Q 6.59375 54.828125 13.0625 64.515625 
Q 19.53125 74.21875 31.78125 74.21875 
z
" id="DejaVuSans-48"/>
    </defs>
    <g style="fill:#262626;" transform="translate(229.03675 40.860625)scale(0.1 -0.1)">
     <use xlink:href="#DejaVuSans-48"/>
    </g>
   </g>
   <g id="text_23">
    <!-- 0 -->
    <g style="fill:#262626;" transform="translate(272.39875 40.860625)scale(0.1 -0.1)">
     <use xlink:href="#DejaVuSans-48"/>
    </g>
   </g>
   <g id="text_24">
    <!-- 0 -->
    <g style="fill:#262626;" transform="translate(315.76075 40.860625)scale(0.1 -0.1)">
     <use xlink:href="#DejaVuSans-48"/>
    </g>
   </g>
   <g id="text_25">
    <!-- 0 -->
    <g style="fill:#262626;" transform="translate(359.12275 40.860625)scale(0.1 -0.1)">
     <use xlink:href="#DejaVuSans-48"/>
    </g>
   </g>
   <g id="text_26">
    <!-- 1 -->
    <g style="fill:#262626;" transform="translate(402.48475 40.860625)scale(0.1 -0.1)">
     <use xlink:href="#DejaVuSans-49"/>
    </g>
   </g>
   <g id="text_27">
    <!-- 0 -->
    <g style="fill:#262626;" transform="translate(445.84675 40.860625)scale(0.1 -0.1)">
     <use xlink:href="#DejaVuSans-48"/>
    </g>
   </g>
   <g id="text_28">
    <!-- 0 -->
    <g style="fill:#262626;" transform="translate(489.20875 40.860625)scale(0.1 -0.1)">
     <use xlink:href="#DejaVuSans-48"/>
    </g>
   </g>
   <g id="text_29">
    <!-- 0 -->
    <g style="fill:#262626;" transform="translate(532.57075 40.860625)scale(0.1 -0.1)">
     <use xlink:href="#DejaVuSans-48"/>
    </g>
   </g>
   <g id="text_30">
    <!-- 0 -->
    <g style="fill:#262626;" transform="translate(575.93275 40.860625)scale(0.1 -0.1)">
     <use xlink:href="#DejaVuSans-48"/>
    </g>
   </g>
   <g id="text_31">
    <!-- 0 -->
    <g style="fill:#262626;" transform="translate(185.67475 87.463125)scale(0.1 -0.1)">
     <use xlink:href="#DejaVuSans-48"/>
    </g>
   </g>
   <g id="text_32">
    <!-- 12 -->
    <defs>
     <path d="M 19.1875 8.296875 
L 53.609375 8.296875 
L 53.609375 0 
L 7.328125 0 
L 7.328125 8.296875 
Q 12.9375 14.109375 22.625 23.890625 
Q 32.328125 33.6875 34.8125 36.53125 
Q 39.546875 41.84375 41.421875 45.53125 
Q 43.3125 49.21875 43.3125 52.78125 
Q 43.3125 58.59375 39.234375 62.25 
Q 35.15625 65.921875 28.609375 65.921875 
Q 23.96875 65.921875 18.8125 64.3125 
Q 13.671875 62.703125 7.8125 59.421875 
L 7.8125 69.390625 
Q 13.765625 71.78125 18.9375 73 
Q 24.125 74.21875 28.421875 74.21875 
Q 39.75 74.21875 46.484375 68.546875 
Q 53.21875 62.890625 53.21875 53.421875 
Q 53.21875 48.921875 51.53125 44.890625 
Q 49.859375 40.875 45.40625 35.40625 
Q 44.1875 33.984375 37.640625 27.21875 
Q 31.109375 20.453125 19.1875 8.296875 
z
" id="DejaVuSans-50"/>
    </defs>
    <g style="fill:#ffffff;" transform="translate(225.8555 87.463125)scale(0.1 -0.1)">
     <use xlink:href="#DejaVuSans-49"/>
     <use x="63.623047" xlink:href="#DejaVuSans-50"/>
    </g>
   </g>
   <g id="text_33">
    <!-- 0 -->
    <g style="fill:#262626;" transform="translate(272.39875 87.463125)scale(0.1 -0.1)">
     <use xlink:href="#DejaVuSans-48"/>
    </g>
   </g>
   <g id="text_34">
    <!-- 0 -->
    <g style="fill:#262626;" transform="translate(315.76075 87.463125)scale(0.1 -0.1)">
     <use xlink:href="#DejaVuSans-48"/>
    </g>
   </g>
   <g id="text_35">
    <!-- 1 -->
    <g style="fill:#262626;" transform="translate(359.12275 87.463125)scale(0.1 -0.1)">
     <use xlink:href="#DejaVuSans-49"/>
    </g>
   </g>
   <g id="text_36">
    <!-- 1 -->
    <g style="fill:#262626;" transform="translate(402.48475 87.463125)scale(0.1 -0.1)">
     <use xlink:href="#DejaVuSans-49"/>
    </g>
   </g>
   <g id="text_37">
    <!-- 0 -->
    <g style="fill:#262626;" transform="translate(445.84675 87.463125)scale(0.1 -0.1)">
     <use xlink:href="#DejaVuSans-48"/>
    </g>
   </g>
   <g id="text_38">
    <!-- 0 -->
    <g style="fill:#262626;" transform="translate(489.20875 87.463125)scale(0.1 -0.1)">
     <use xlink:href="#DejaVuSans-48"/>
    </g>
   </g>
   <g id="text_39">
    <!-- 0 -->
    <g style="fill:#262626;" transform="translate(532.57075 87.463125)scale(0.1 -0.1)">
     <use xlink:href="#DejaVuSans-48"/>
    </g>
   </g>
   <g id="text_40">
    <!-- 0 -->
    <g style="fill:#262626;" transform="translate(575.93275 87.463125)scale(0.1 -0.1)">
     <use xlink:href="#DejaVuSans-48"/>
    </g>
   </g>
   <g id="text_41">
    <!-- 0 -->
    <g style="fill:#262626;" transform="translate(185.67475 134.065625)scale(0.1 -0.1)">
     <use xlink:href="#DejaVuSans-48"/>
    </g>
   </g>
   <g id="text_42">
    <!-- 0 -->
    <g style="fill:#262626;" transform="translate(229.03675 134.065625)scale(0.1 -0.1)">
     <use xlink:href="#DejaVuSans-48"/>
    </g>
   </g>
   <g id="text_43">
    <!-- 8 -->
    <defs>
     <path d="M 31.78125 34.625 
Q 24.75 34.625 20.71875 30.859375 
Q 16.703125 27.09375 16.703125 20.515625 
Q 16.703125 13.921875 20.71875 10.15625 
Q 24.75 6.390625 31.78125 6.390625 
Q 38.8125 6.390625 42.859375 10.171875 
Q 46.921875 13.96875 46.921875 20.515625 
Q 46.921875 27.09375 42.890625 30.859375 
Q 38.875 34.625 31.78125 34.625 
z
M 21.921875 38.8125 
Q 15.578125 40.375 12.03125 44.71875 
Q 8.5 49.078125 8.5 55.328125 
Q 8.5 64.0625 14.71875 69.140625 
Q 20.953125 74.21875 31.78125 74.21875 
Q 42.671875 74.21875 48.875 69.140625 
Q 55.078125 64.0625 55.078125 55.328125 
Q 55.078125 49.078125 51.53125 44.71875 
Q 48 40.375 41.703125 38.8125 
Q 48.828125 37.15625 52.796875 32.3125 
Q 56.78125 27.484375 56.78125 20.515625 
Q 56.78125 9.90625 50.3125 4.234375 
Q 43.84375 -1.421875 31.78125 -1.421875 
Q 19.734375 -1.421875 13.25 4.234375 
Q 6.78125 9.90625 6.78125 20.515625 
Q 6.78125 27.484375 10.78125 32.3125 
Q 14.796875 37.15625 21.921875 38.8125 
z
M 18.3125 54.390625 
Q 18.3125 48.734375 21.84375 45.5625 
Q 25.390625 42.390625 31.78125 42.390625 
Q 38.140625 42.390625 41.71875 45.5625 
Q 45.3125 48.734375 45.3125 54.390625 
Q 45.3125 60.0625 41.71875 63.234375 
Q 38.140625 66.40625 31.78125 66.40625 
Q 25.390625 66.40625 21.84375 63.234375 
Q 18.3125 60.0625 18.3125 54.390625 
z
" id="DejaVuSans-56"/>
    </defs>
    <g style="fill:#ffffff;" transform="translate(272.39875 134.065625)scale(0.1 -0.1)">
     <use xlink:href="#DejaVuSans-56"/>
    </g>
   </g>
   <g id="text_44">
    <!-- 0 -->
    <g style="fill:#262626;" transform="translate(315.76075 134.065625)scale(0.1 -0.1)">
     <use xlink:href="#DejaVuSans-48"/>
    </g>
   </g>
   <g id="text_45">
    <!-- 0 -->
    <g style="fill:#262626;" transform="translate(359.12275 134.065625)scale(0.1 -0.1)">
     <use xlink:href="#DejaVuSans-48"/>
    </g>
   </g>
   <g id="text_46">
    <!-- 1 -->
    <g style="fill:#262626;" transform="translate(402.48475 134.065625)scale(0.1 -0.1)">
     <use xlink:href="#DejaVuSans-49"/>
    </g>
   </g>
   <g id="text_47">
    <!-- 0 -->
    <g style="fill:#262626;" transform="translate(445.84675 134.065625)scale(0.1 -0.1)">
     <use xlink:href="#DejaVuSans-48"/>
    </g>
   </g>
   <g id="text_48">
    <!-- 0 -->
    <g style="fill:#262626;" transform="translate(489.20875 134.065625)scale(0.1 -0.1)">
     <use xlink:href="#DejaVuSans-48"/>
    </g>
   </g>
   <g id="text_49">
    <!-- 0 -->
    <g style="fill:#262626;" transform="translate(532.57075 134.065625)scale(0.1 -0.1)">
     <use xlink:href="#DejaVuSans-48"/>
    </g>
   </g>
   <g id="text_50">
    <!-- 0 -->
    <g style="fill:#262626;" transform="translate(575.93275 134.065625)scale(0.1 -0.1)">
     <use xlink:href="#DejaVuSans-48"/>
    </g>
   </g>
   <g id="text_51">
    <!-- 0 -->
    <g style="fill:#262626;" transform="translate(185.67475 180.668125)scale(0.1 -0.1)">
     <use xlink:href="#DejaVuSans-48"/>
    </g>
   </g>
   <g id="text_52">
    <!-- 0 -->
    <g style="fill:#262626;" transform="translate(229.03675 180.668125)scale(0.1 -0.1)">
     <use xlink:href="#DejaVuSans-48"/>
    </g>
   </g>
   <g id="text_53">
    <!-- 0 -->
    <g style="fill:#262626;" transform="translate(272.39875 180.668125)scale(0.1 -0.1)">
     <use xlink:href="#DejaVuSans-48"/>
    </g>
   </g>
   <g id="text_54">
    <!-- 8 -->
    <g style="fill:#ffffff;" transform="translate(315.76075 180.668125)scale(0.1 -0.1)">
     <use xlink:href="#DejaVuSans-56"/>
    </g>
   </g>
   <g id="text_55">
    <!-- 0 -->
    <g style="fill:#262626;" transform="translate(359.12275 180.668125)scale(0.1 -0.1)">
     <use xlink:href="#DejaVuSans-48"/>
    </g>
   </g>
   <g id="text_56">
    <!-- 0 -->
    <g style="fill:#262626;" transform="translate(402.48475 180.668125)scale(0.1 -0.1)">
     <use xlink:href="#DejaVuSans-48"/>
    </g>
   </g>
   <g id="text_57">
    <!-- 0 -->
    <g style="fill:#262626;" transform="translate(445.84675 180.668125)scale(0.1 -0.1)">
     <use xlink:href="#DejaVuSans-48"/>
    </g>
   </g>
   <g id="text_58">
    <!-- 0 -->
    <g style="fill:#262626;" transform="translate(489.20875 180.668125)scale(0.1 -0.1)">
     <use xlink:href="#DejaVuSans-48"/>
    </g>
   </g>
   <g id="text_59">
    <!-- 0 -->
    <g style="fill:#262626;" transform="translate(532.57075 180.668125)scale(0.1 -0.1)">
     <use xlink:href="#DejaVuSans-48"/>
    </g>
   </g>
   <g id="text_60">
    <!-- 0 -->
    <g style="fill:#262626;" transform="translate(575.93275 180.668125)scale(0.1 -0.1)">
     <use xlink:href="#DejaVuSans-48"/>
    </g>
   </g>
   <g id="text_61">
    <!-- 0 -->
    <g style="fill:#262626;" transform="translate(185.67475 227.270625)scale(0.1 -0.1)">
     <use xlink:href="#DejaVuSans-48"/>
    </g>
   </g>
   <g id="text_62">
    <!-- 0 -->
    <g style="fill:#262626;" transform="translate(229.03675 227.270625)scale(0.1 -0.1)">
     <use xlink:href="#DejaVuSans-48"/>
    </g>
   </g>
   <g id="text_63">
    <!-- 0 -->
    <g style="fill:#262626;" transform="translate(272.39875 227.270625)scale(0.1 -0.1)">
     <use xlink:href="#DejaVuSans-48"/>
    </g>
   </g>
   <g id="text_64">
    <!-- 0 -->
    <g style="fill:#262626;" transform="translate(315.76075 227.270625)scale(0.1 -0.1)">
     <use xlink:href="#DejaVuSans-48"/>
    </g>
   </g>
   <g id="text_65">
    <!-- 6 -->
    <defs>
     <path d="M 33.015625 40.375 
Q 26.375 40.375 22.484375 35.828125 
Q 18.609375 31.296875 18.609375 23.390625 
Q 18.609375 15.53125 22.484375 10.953125 
Q 26.375 6.390625 33.015625 6.390625 
Q 39.65625 6.390625 43.53125 10.953125 
Q 47.40625 15.53125 47.40625 23.390625 
Q 47.40625 31.296875 43.53125 35.828125 
Q 39.65625 40.375 33.015625 40.375 
z
M 52.59375 71.296875 
L 52.59375 62.3125 
Q 48.875 64.0625 45.09375 64.984375 
Q 41.3125 65.921875 37.59375 65.921875 
Q 27.828125 65.921875 22.671875 59.328125 
Q 17.53125 52.734375 16.796875 39.40625 
Q 19.671875 43.65625 24.015625 45.921875 
Q 28.375 48.1875 33.59375 48.1875 
Q 44.578125 48.1875 50.953125 41.515625 
Q 57.328125 34.859375 57.328125 23.390625 
Q 57.328125 12.15625 50.6875 5.359375 
Q 44.046875 -1.421875 33.015625 -1.421875 
Q 20.359375 -1.421875 13.671875 8.265625 
Q 6.984375 17.96875 6.984375 36.375 
Q 6.984375 53.65625 15.1875 63.9375 
Q 23.390625 74.21875 37.203125 74.21875 
Q 40.921875 74.21875 44.703125 73.484375 
Q 48.484375 72.75 52.59375 71.296875 
z
" id="DejaVuSans-54"/>
    </defs>
    <g style="fill:#ffffff;" transform="translate(359.12275 227.270625)scale(0.1 -0.1)">
     <use xlink:href="#DejaVuSans-54"/>
    </g>
   </g>
   <g id="text_66">
    <!-- 0 -->
    <g style="fill:#262626;" transform="translate(402.48475 227.270625)scale(0.1 -0.1)">
     <use xlink:href="#DejaVuSans-48"/>
    </g>
   </g>
   <g id="text_67">
    <!-- 1 -->
    <g style="fill:#262626;" transform="translate(445.84675 227.270625)scale(0.1 -0.1)">
     <use xlink:href="#DejaVuSans-49"/>
    </g>
   </g>
   <g id="text_68">
    <!-- 0 -->
    <g style="fill:#262626;" transform="translate(489.20875 227.270625)scale(0.1 -0.1)">
     <use xlink:href="#DejaVuSans-48"/>
    </g>
   </g>
   <g id="text_69">
    <!-- 0 -->
    <g style="fill:#262626;" transform="translate(532.57075 227.270625)scale(0.1 -0.1)">
     <use xlink:href="#DejaVuSans-48"/>
    </g>
   </g>
   <g id="text_70">
    <!-- 1 -->
    <g style="fill:#262626;" transform="translate(575.93275 227.270625)scale(0.1 -0.1)">
     <use xlink:href="#DejaVuSans-49"/>
    </g>
   </g>
   <g id="text_71">
    <!-- 0 -->
    <g style="fill:#262626;" transform="translate(185.67475 273.873125)scale(0.1 -0.1)">
     <use xlink:href="#DejaVuSans-48"/>
    </g>
   </g>
   <g id="text_72">
    <!-- 0 -->
    <g style="fill:#262626;" transform="translate(229.03675 273.873125)scale(0.1 -0.1)">
     <use xlink:href="#DejaVuSans-48"/>
    </g>
   </g>
   <g id="text_73">
    <!-- 0 -->
    <g style="fill:#262626;" transform="translate(272.39875 273.873125)scale(0.1 -0.1)">
     <use xlink:href="#DejaVuSans-48"/>
    </g>
   </g>
   <g id="text_74">
    <!-- 0 -->
    <g style="fill:#262626;" transform="translate(315.76075 273.873125)scale(0.1 -0.1)">
     <use xlink:href="#DejaVuSans-48"/>
    </g>
   </g>
   <g id="text_75">
    <!-- 0 -->
    <g style="fill:#262626;" transform="translate(359.12275 273.873125)scale(0.1 -0.1)">
     <use xlink:href="#DejaVuSans-48"/>
    </g>
   </g>
   <g id="text_76">
    <!-- 5 -->
    <defs>
     <path d="M 10.796875 72.90625 
L 49.515625 72.90625 
L 49.515625 64.59375 
L 19.828125 64.59375 
L 19.828125 46.734375 
Q 21.96875 47.46875 24.109375 47.828125 
Q 26.265625 48.1875 28.421875 48.1875 
Q 40.625 48.1875 47.75 41.5 
Q 54.890625 34.8125 54.890625 23.390625 
Q 54.890625 11.625 47.5625 5.09375 
Q 40.234375 -1.421875 26.90625 -1.421875 
Q 22.3125 -1.421875 17.546875 -0.640625 
Q 12.796875 0.140625 7.71875 1.703125 
L 7.71875 11.625 
Q 12.109375 9.234375 16.796875 8.0625 
Q 21.484375 6.890625 26.703125 6.890625 
Q 35.15625 6.890625 40.078125 11.328125 
Q 45.015625 15.765625 45.015625 23.390625 
Q 45.015625 31 40.078125 35.4375 
Q 35.15625 39.890625 26.703125 39.890625 
Q 22.75 39.890625 18.8125 39.015625 
Q 14.890625 38.140625 10.796875 36.28125 
z
" id="DejaVuSans-53"/>
    </defs>
    <g style="fill:#262626;" transform="translate(402.48475 273.873125)scale(0.1 -0.1)">
     <use xlink:href="#DejaVuSans-53"/>
    </g>
   </g>
   <g id="text_77">
    <!-- 0 -->
    <g style="fill:#262626;" transform="translate(445.84675 273.873125)scale(0.1 -0.1)">
     <use xlink:href="#DejaVuSans-48"/>
    </g>
   </g>
   <g id="text_78">
    <!-- 1 -->
    <g style="fill:#262626;" transform="translate(489.20875 273.873125)scale(0.1 -0.1)">
     <use xlink:href="#DejaVuSans-49"/>
    </g>
   </g>
   <g id="text_79">
    <!-- 0 -->
    <g style="fill:#262626;" transform="translate(532.57075 273.873125)scale(0.1 -0.1)">
     <use xlink:href="#DejaVuSans-48"/>
    </g>
   </g>
   <g id="text_80">
    <!-- 0 -->
    <g style="fill:#262626;" transform="translate(575.93275 273.873125)scale(0.1 -0.1)">
     <use xlink:href="#DejaVuSans-48"/>
    </g>
   </g>
   <g id="text_81">
    <!-- 0 -->
    <g style="fill:#262626;" transform="translate(185.67475 320.475625)scale(0.1 -0.1)">
     <use xlink:href="#DejaVuSans-48"/>
    </g>
   </g>
   <g id="text_82">
    <!-- 0 -->
    <g style="fill:#262626;" transform="translate(229.03675 320.475625)scale(0.1 -0.1)">
     <use xlink:href="#DejaVuSans-48"/>
    </g>
   </g>
   <g id="text_83">
    <!-- 0 -->
    <g style="fill:#262626;" transform="translate(272.39875 320.475625)scale(0.1 -0.1)">
     <use xlink:href="#DejaVuSans-48"/>
    </g>
   </g>
   <g id="text_84">
    <!-- 0 -->
    <g style="fill:#262626;" transform="translate(315.76075 320.475625)scale(0.1 -0.1)">
     <use xlink:href="#DejaVuSans-48"/>
    </g>
   </g>
   <g id="text_85">
    <!-- 0 -->
    <g style="fill:#262626;" transform="translate(359.12275 320.475625)scale(0.1 -0.1)">
     <use xlink:href="#DejaVuSans-48"/>
    </g>
   </g>
   <g id="text_86">
    <!-- 0 -->
    <g style="fill:#262626;" transform="translate(402.48475 320.475625)scale(0.1 -0.1)">
     <use xlink:href="#DejaVuSans-48"/>
    </g>
   </g>
   <g id="text_87">
    <!-- 11 -->
    <g style="fill:#ffffff;" transform="translate(442.6655 320.475625)scale(0.1 -0.1)">
     <use xlink:href="#DejaVuSans-49"/>
     <use x="63.623047" xlink:href="#DejaVuSans-49"/>
    </g>
   </g>
   <g id="text_88">
    <!-- 0 -->
    <g style="fill:#262626;" transform="translate(489.20875 320.475625)scale(0.1 -0.1)">
     <use xlink:href="#DejaVuSans-48"/>
    </g>
   </g>
   <g id="text_89">
    <!-- 0 -->
    <g style="fill:#262626;" transform="translate(532.57075 320.475625)scale(0.1 -0.1)">
     <use xlink:href="#DejaVuSans-48"/>
    </g>
   </g>
   <g id="text_90">
    <!-- 0 -->
    <g style="fill:#262626;" transform="translate(575.93275 320.475625)scale(0.1 -0.1)">
     <use xlink:href="#DejaVuSans-48"/>
    </g>
   </g>
   <g id="text_91">
    <!-- 0 -->
    <g style="fill:#262626;" transform="translate(185.67475 367.078125)scale(0.1 -0.1)">
     <use xlink:href="#DejaVuSans-48"/>
    </g>
   </g>
   <g id="text_92">
    <!-- 0 -->
    <g style="fill:#262626;" transform="translate(229.03675 367.078125)scale(0.1 -0.1)">
     <use xlink:href="#DejaVuSans-48"/>
    </g>
   </g>
   <g id="text_93">
    <!-- 0 -->
    <g style="fill:#262626;" transform="translate(272.39875 367.078125)scale(0.1 -0.1)">
     <use xlink:href="#DejaVuSans-48"/>
    </g>
   </g>
   <g id="text_94">
    <!-- 0 -->
    <g style="fill:#262626;" transform="translate(315.76075 367.078125)scale(0.1 -0.1)">
     <use xlink:href="#DejaVuSans-48"/>
    </g>
   </g>
   <g id="text_95">
    <!-- 0 -->
    <g style="fill:#262626;" transform="translate(359.12275 367.078125)scale(0.1 -0.1)">
     <use xlink:href="#DejaVuSans-48"/>
    </g>
   </g>
   <g id="text_96">
    <!-- 0 -->
    <g style="fill:#262626;" transform="translate(402.48475 367.078125)scale(0.1 -0.1)">
     <use xlink:href="#DejaVuSans-48"/>
    </g>
   </g>
   <g id="text_97">
    <!-- 0 -->
    <g style="fill:#262626;" transform="translate(445.84675 367.078125)scale(0.1 -0.1)">
     <use xlink:href="#DejaVuSans-48"/>
    </g>
   </g>
   <g id="text_98">
    <!-- 4 -->
    <defs>
     <path d="M 37.796875 64.3125 
L 12.890625 25.390625 
L 37.796875 25.390625 
z
M 35.203125 72.90625 
L 47.609375 72.90625 
L 47.609375 25.390625 
L 58.015625 25.390625 
L 58.015625 17.1875 
L 47.609375 17.1875 
L 47.609375 0 
L 37.796875 0 
L 37.796875 17.1875 
L 4.890625 17.1875 
L 4.890625 26.703125 
z
" id="DejaVuSans-52"/>
    </defs>
    <g style="fill:#262626;" transform="translate(489.20875 367.078125)scale(0.1 -0.1)">
     <use xlink:href="#DejaVuSans-52"/>
    </g>
   </g>
   <g id="text_99">
    <!-- 0 -->
    <g style="fill:#262626;" transform="translate(532.57075 367.078125)scale(0.1 -0.1)">
     <use xlink:href="#DejaVuSans-48"/>
    </g>
   </g>
   <g id="text_100">
    <!-- 0 -->
    <g style="fill:#262626;" transform="translate(575.93275 367.078125)scale(0.1 -0.1)">
     <use xlink:href="#DejaVuSans-48"/>
    </g>
   </g>
   <g id="text_101">
    <!-- 0 -->
    <g style="fill:#262626;" transform="translate(185.67475 413.680625)scale(0.1 -0.1)">
     <use xlink:href="#DejaVuSans-48"/>
    </g>
   </g>
   <g id="text_102">
    <!-- 0 -->
    <g style="fill:#262626;" transform="translate(229.03675 413.680625)scale(0.1 -0.1)">
     <use xlink:href="#DejaVuSans-48"/>
    </g>
   </g>
   <g id="text_103">
    <!-- 0 -->
    <g style="fill:#262626;" transform="translate(272.39875 413.680625)scale(0.1 -0.1)">
     <use xlink:href="#DejaVuSans-48"/>
    </g>
   </g>
   <g id="text_104">
    <!-- 0 -->
    <g style="fill:#262626;" transform="translate(315.76075 413.680625)scale(0.1 -0.1)">
     <use xlink:href="#DejaVuSans-48"/>
    </g>
   </g>
   <g id="text_105">
    <!-- 0 -->
    <g style="fill:#262626;" transform="translate(359.12275 413.680625)scale(0.1 -0.1)">
     <use xlink:href="#DejaVuSans-48"/>
    </g>
   </g>
   <g id="text_106">
    <!-- 0 -->
    <g style="fill:#262626;" transform="translate(402.48475 413.680625)scale(0.1 -0.1)">
     <use xlink:href="#DejaVuSans-48"/>
    </g>
   </g>
   <g id="text_107">
    <!-- 0 -->
    <g style="fill:#262626;" transform="translate(445.84675 413.680625)scale(0.1 -0.1)">
     <use xlink:href="#DejaVuSans-48"/>
    </g>
   </g>
   <g id="text_108">
    <!-- 0 -->
    <g style="fill:#262626;" transform="translate(489.20875 413.680625)scale(0.1 -0.1)">
     <use xlink:href="#DejaVuSans-48"/>
    </g>
   </g>
   <g id="text_109">
    <!-- 7 -->
    <defs>
     <path d="M 8.203125 72.90625 
L 55.078125 72.90625 
L 55.078125 68.703125 
L 28.609375 0 
L 18.3125 0 
L 43.21875 64.59375 
L 8.203125 64.59375 
z
" id="DejaVuSans-55"/>
    </defs>
    <g style="fill:#ffffff;" transform="translate(532.57075 413.680625)scale(0.1 -0.1)">
     <use xlink:href="#DejaVuSans-55"/>
    </g>
   </g>
   <g id="text_110">
    <!-- 0 -->
    <g style="fill:#262626;" transform="translate(575.93275 413.680625)scale(0.1 -0.1)">
     <use xlink:href="#DejaVuSans-48"/>
    </g>
   </g>
   <g id="text_111">
    <!-- 0 -->
    <g style="fill:#262626;" transform="translate(185.67475 460.283125)scale(0.1 -0.1)">
     <use xlink:href="#DejaVuSans-48"/>
    </g>
   </g>
   <g id="text_112">
    <!-- 0 -->
    <g style="fill:#262626;" transform="translate(229.03675 460.283125)scale(0.1 -0.1)">
     <use xlink:href="#DejaVuSans-48"/>
    </g>
   </g>
   <g id="text_113">
    <!-- 0 -->
    <g style="fill:#262626;" transform="translate(272.39875 460.283125)scale(0.1 -0.1)">
     <use xlink:href="#DejaVuSans-48"/>
    </g>
   </g>
   <g id="text_114">
    <!-- 1 -->
    <g style="fill:#262626;" transform="translate(315.76075 460.283125)scale(0.1 -0.1)">
     <use xlink:href="#DejaVuSans-49"/>
    </g>
   </g>
   <g id="text_115">
    <!-- 0 -->
    <g style="fill:#262626;" transform="translate(359.12275 460.283125)scale(0.1 -0.1)">
     <use xlink:href="#DejaVuSans-48"/>
    </g>
   </g>
   <g id="text_116">
    <!-- 1 -->
    <g style="fill:#262626;" transform="translate(402.48475 460.283125)scale(0.1 -0.1)">
     <use xlink:href="#DejaVuSans-49"/>
    </g>
   </g>
   <g id="text_117">
    <!-- 0 -->
    <g style="fill:#262626;" transform="translate(445.84675 460.283125)scale(0.1 -0.1)">
     <use xlink:href="#DejaVuSans-48"/>
    </g>
   </g>
   <g id="text_118">
    <!-- 0 -->
    <g style="fill:#262626;" transform="translate(489.20875 460.283125)scale(0.1 -0.1)">
     <use xlink:href="#DejaVuSans-48"/>
    </g>
   </g>
   <g id="text_119">
    <!-- 0 -->
    <g style="fill:#262626;" transform="translate(532.57075 460.283125)scale(0.1 -0.1)">
     <use xlink:href="#DejaVuSans-48"/>
    </g>
   </g>
   <g id="text_120">
    <!-- 7 -->
    <g style="fill:#ffffff;" transform="translate(575.93275 460.283125)scale(0.1 -0.1)">
     <use xlink:href="#DejaVuSans-55"/>
    </g>
   </g>
  </g>
  <g id="axes_2">
   <g id="patch_3">
    <path clip-path="url(#p1ac80fafb9)" d="M 627.89625 480.825 
L 627.89625 403.154167 
L 627.89625 92.470833 
L 627.89625 14.8 
L 651.1975 14.8 
L 651.1975 92.470833 
L 651.1975 403.154167 
L 651.1975 480.825 
z
" style="fill:#ffffff;stroke:#ffffff;stroke-linejoin:miter;stroke-width:0.01;"/>
   </g>
   <g id="QuadMesh_2">
    <path clip-path="url(#p1ac80fafb9)" d="M 627.89625 480.825 
L 651.1975 480.825 
L 651.1975 403.154167 
L 627.89625 403.154167 
L 627.89625 480.825 
" style="fill:#dbe9f6;"/>
    <path clip-path="url(#p1ac80fafb9)" d="M 627.89625 403.154167 
L 651.1975 403.154167 
L 651.1975 325.483333 
L 627.89625 325.483333 
L 627.89625 403.154167 
" style="fill:#bad6eb;"/>
    <path clip-path="url(#p1ac80fafb9)" d="M 627.89625 325.483333 
L 651.1975 325.483333 
L 651.1975 247.8125 
L 627.89625 247.8125 
L 627.89625 325.483333 
" style="fill:#89bedc;"/>
    <path clip-path="url(#p1ac80fafb9)" d="M 627.89625 247.8125 
L 651.1975 247.8125 
L 651.1975 170.141667 
L 627.89625 170.141667 
L 627.89625 247.8125 
" style="fill:#539ecd;"/>
    <path clip-path="url(#p1ac80fafb9)" d="M 627.89625 170.141667 
L 651.1975 170.141667 
L 651.1975 92.470833 
L 627.89625 92.470833 
L 627.89625 170.141667 
" style="fill:#2b7bba;"/>
    <path clip-path="url(#p1ac80fafb9)" d="M 627.89625 92.470833 
L 651.1975 92.470833 
L 651.1975 14.8 
L 627.89625 14.8 
L 627.89625 92.470833 
" style="fill:#0b559f;"/>
   </g>
   <g id="matplotlib.axis_3"/>
   <g id="matplotlib.axis_4">
    <g id="ytick_11">
     <g id="line2d_21">
      <defs>
       <path d="M 0 0 
L 3.5 0 
" id="mb3bc7d1b77" style="stroke:#000000;stroke-width:0.8;"/>
      </defs>
      <g>
       <use style="stroke:#000000;stroke-width:0.8;" x="651.1975" xlink:href="#mb3bc7d1b77" y="480.825"/>
      </g>
     </g>
     <g id="text_121">
      <!-- 0 -->
      <g transform="translate(658.1975 484.624219)scale(0.1 -0.1)">
       <use xlink:href="#DejaVuSans-48"/>
      </g>
     </g>
    </g>
    <g id="ytick_12">
     <g id="line2d_22">
      <g>
       <use style="stroke:#000000;stroke-width:0.8;" x="651.1975" xlink:href="#mb3bc7d1b77" y="403.154167"/>
      </g>
     </g>
     <g id="text_122">
      <!-- 2 -->
      <g transform="translate(658.1975 406.953385)scale(0.1 -0.1)">
       <use xlink:href="#DejaVuSans-50"/>
      </g>
     </g>
    </g>
    <g id="ytick_13">
     <g id="line2d_23">
      <g>
       <use style="stroke:#000000;stroke-width:0.8;" x="651.1975" xlink:href="#mb3bc7d1b77" y="325.483333"/>
      </g>
     </g>
     <g id="text_123">
      <!-- 4 -->
      <g transform="translate(658.1975 329.282552)scale(0.1 -0.1)">
       <use xlink:href="#DejaVuSans-52"/>
      </g>
     </g>
    </g>
    <g id="ytick_14">
     <g id="line2d_24">
      <g>
       <use style="stroke:#000000;stroke-width:0.8;" x="651.1975" xlink:href="#mb3bc7d1b77" y="247.8125"/>
      </g>
     </g>
     <g id="text_124">
      <!-- 6 -->
      <g transform="translate(658.1975 251.611719)scale(0.1 -0.1)">
       <use xlink:href="#DejaVuSans-54"/>
      </g>
     </g>
    </g>
    <g id="ytick_15">
     <g id="line2d_25">
      <g>
       <use style="stroke:#000000;stroke-width:0.8;" x="651.1975" xlink:href="#mb3bc7d1b77" y="170.141667"/>
      </g>
     </g>
     <g id="text_125">
      <!-- 8 -->
      <g transform="translate(658.1975 173.940885)scale(0.1 -0.1)">
       <use xlink:href="#DejaVuSans-56"/>
      </g>
     </g>
    </g>
    <g id="ytick_16">
     <g id="line2d_26">
      <g>
       <use style="stroke:#000000;stroke-width:0.8;" x="651.1975" xlink:href="#mb3bc7d1b77" y="92.470833"/>
      </g>
     </g>
     <g id="text_126">
      <!-- 10 -->
      <g transform="translate(658.1975 96.270052)scale(0.1 -0.1)">
       <use xlink:href="#DejaVuSans-49"/>
       <use x="63.623047" xlink:href="#DejaVuSans-48"/>
      </g>
     </g>
    </g>
    <g id="ytick_17">
     <g id="line2d_27">
      <g>
       <use style="stroke:#000000;stroke-width:0.8;" x="651.1975" xlink:href="#mb3bc7d1b77" y="14.8"/>
      </g>
     </g>
     <g id="text_127">
      <!-- 12 -->
      <g transform="translate(658.1975 18.599219)scale(0.1 -0.1)">
       <use xlink:href="#DejaVuSans-49"/>
       <use x="63.623047" xlink:href="#DejaVuSans-50"/>
      </g>
     </g>
    </g>
   </g>
   <g id="patch_4">
    <path d="M 627.89625 480.825 
L 627.89625 403.154167 
L 627.89625 92.470833 
L 627.89625 14.8 
L 651.1975 14.8 
L 651.1975 92.470833 
L 651.1975 403.154167 
L 651.1975 480.825 
z
" style="fill:none;"/>
   </g>
  </g>
 </g>
 <defs>
  <clipPath id="pd9bbb4adef">
   <rect height="466.025" width="433.62" x="167.175" y="14.8"/>
  </clipPath>
  <clipPath id="p1ac80fafb9">
   <rect height="466.025" width="23.30125" x="627.89625" y="14.8"/>
  </clipPath>
 </defs>
</svg>
